<svg width="84" height="54" viewBox="0 0 84 54" fill="none" xmlns="http://www.w3.org/2000/svg">
<path d="M0.868652 14.4822H4.396C4.41943 15.0447 4.646 15.5173 5.07568 15.9001C5.51318 16.283 6.11084 16.4744 6.86865 16.4744C7.5874 16.4744 8.16943 16.3181 8.61475 16.0056C9.06006 15.6853 9.28662 15.2595 9.29443 14.7283C9.31006 14.3142 9.17725 13.9548 8.896 13.6501C8.61475 13.3455 8.0835 13.0798 7.30225 12.8533L5.31006 12.3025C2.4585 11.4197 1.03271 9.83374 1.03271 7.54468C1.03271 6.21655 1.49756 5.10718 2.42725 4.21655C3.35693 3.32593 4.54053 2.8064 5.97803 2.65796V0.0915527H7.73584V2.6814C9.10303 2.8689 10.2085 3.40405 11.0522 4.28687C11.896 5.16968 12.3179 6.29858 12.3179 7.67358H8.81396C8.81396 7.11108 8.62646 6.65796 8.25146 6.31421C7.88428 5.97046 7.36084 5.79858 6.68115 5.79858C6.06396 5.79858 5.55225 5.95483 5.146 6.26733C4.73975 6.57202 4.53662 6.96655 4.53662 7.45093C4.53662 8.23999 5.13037 8.80249 6.31787 9.13843L8.28662 9.75952C11.3804 10.6501 12.8921 12.3142 12.8218 14.7517C12.814 15.4705 12.6655 16.1228 12.3765 16.7087C12.0952 17.2947 11.7124 17.783 11.228 18.1736C10.7515 18.5564 10.2163 18.865 9.62256 19.0994C9.03662 19.3259 8.40771 19.4744 7.73584 19.5447V22.3103H5.97803V19.5447C4.42334 19.3884 3.18115 18.8494 2.25146 17.9275C1.32959 16.9978 0.868652 15.8494 0.868652 14.4822ZM0.845215 43.2322V40.2791L6.89209 37.3962V53.3337H3.52881V42.072L0.845215 43.2322ZM10.396 48.1072C10.3413 47.4666 10.314 46.8455 10.314 46.2439C10.314 45.6345 10.3413 45.0056 10.396 44.3572C10.4507 43.7009 10.5483 43.0837 10.689 42.5056C10.8296 41.9275 11.0054 41.365 11.2163 40.8181C11.4272 40.2712 11.7046 39.783 12.0483 39.3533C12.3921 38.9236 12.7827 38.5486 13.2202 38.2283C13.6577 37.908 14.1772 37.6697 14.7788 37.5134C15.3804 37.3494 16.0405 37.2791 16.7593 37.3025C17.2671 37.3181 17.7319 37.3767 18.1538 37.4783C18.5757 37.572 19.0015 37.7283 19.4312 37.947C19.8687 38.1658 20.271 38.4783 20.6382 38.8845C21.0054 39.283 21.3257 39.7712 21.5991 40.3494L18.4585 41.697C18.0601 40.8611 17.4507 40.4431 16.6304 40.4431C16.0757 40.4431 15.5991 40.5798 15.2007 40.8533C14.8022 41.1189 14.5015 41.4783 14.2983 41.9314C14.0952 42.3845 13.9507 42.865 13.8647 43.3728C13.7788 43.8806 13.7437 44.4158 13.7593 44.9783C13.8921 44.5955 14.2358 44.2048 14.7905 43.8064C15.3452 43.408 16.0562 43.2087 16.9233 43.2087C17.5015 43.2087 18.0679 43.3181 18.6226 43.5369C19.1772 43.7556 19.6929 44.0759 20.1694 44.4978C20.646 44.9119 21.0288 45.4666 21.3179 46.1619C21.6069 46.8572 21.7515 47.6384 21.7515 48.5056C21.7515 50.0212 21.2241 51.2439 20.1694 52.1736C19.1226 53.1033 17.7437 53.5681 16.0327 53.5681C14.5249 53.5681 13.2437 53.072 12.189 52.0798C11.1421 51.0798 10.5444 49.7556 10.396 48.1072ZM14.7437 46.865C14.3374 47.2712 14.1343 47.7556 14.1343 48.3181C14.1343 48.8806 14.3374 49.365 14.7437 49.7712C15.1499 50.1775 15.6343 50.3806 16.1968 50.3806C16.7593 50.3806 17.2437 50.1775 17.6499 49.7712C18.064 49.365 18.271 48.8806 18.271 48.3181C18.271 47.7556 18.064 47.2712 17.6499 46.865C17.2437 46.4587 16.7593 46.2556 16.1968 46.2556C15.6343 46.2556 15.1499 46.4587 14.7437 46.865ZM24.0483 40.7126V37.6189H35.9077L28.9702 53.3337H25.1499L30.6929 40.7126H24.0483ZM37.4546 42.365C37.4546 40.8494 37.978 39.6267 39.0249 38.697C40.0796 37.7673 41.4624 37.3025 43.1733 37.3025C44.6812 37.3025 45.9585 37.8025 47.0054 38.8025C48.0601 39.8025 48.6616 41.1267 48.8101 42.7751C48.8647 43.4158 48.8921 44.0408 48.8921 44.6501C48.8921 45.2517 48.8647 45.8806 48.8101 46.5369C48.7554 47.1853 48.6577 47.7986 48.5171 48.3767C48.3765 48.9548 48.2007 49.5173 47.9897 50.0642C47.7788 50.6033 47.5015 51.0876 47.1577 51.5173C46.814 51.947 46.4233 52.322 45.9858 52.6423C45.5483 52.9626 45.0288 53.2009 44.4272 53.3572C43.8257 53.5212 43.1655 53.5916 42.4468 53.5681C41.939 53.5525 41.4741 53.4939 41.0522 53.3923C40.6304 53.2986 40.2007 53.1423 39.7632 52.9236C39.3335 52.7048 38.9351 52.3962 38.5679 51.9978C38.2007 51.5916 37.8804 51.0994 37.6069 50.5212L40.7476 49.1853C41.1382 50.0134 41.7476 50.4275 42.5757 50.4275C43.1304 50.4275 43.6069 50.2947 44.0054 50.0291C44.4038 49.7556 44.7046 49.3923 44.9077 48.9392C45.1108 48.4861 45.2554 48.0056 45.3413 47.4978C45.4272 46.99 45.4624 46.4548 45.4468 45.8923C45.3999 46.033 45.3413 46.1697 45.271 46.3025C45.2085 46.4275 45.0952 46.5798 44.9312 46.7595C44.7671 46.9314 44.5757 47.0837 44.3569 47.2166C44.146 47.3416 43.8569 47.4509 43.4897 47.5447C43.1304 47.6306 42.728 47.6736 42.2827 47.6736C41.7046 47.6736 41.1382 47.5642 40.5835 47.3455C40.0288 47.1267 39.5132 46.8103 39.0366 46.3962C38.5679 45.9744 38.1851 45.4158 37.8882 44.7205C37.5991 44.0173 37.4546 43.2322 37.4546 42.365ZM41.5444 41.0994C41.1382 41.5056 40.9351 41.99 40.9351 42.5525C40.9351 43.115 41.1382 43.6033 41.5444 44.0173C41.9585 44.4236 42.4468 44.6267 43.0093 44.6267C43.5718 44.6267 44.0562 44.4236 44.4624 44.0173C44.8687 43.6033 45.0718 43.115 45.0718 42.5525C45.0718 41.99 44.8687 41.5056 44.4624 41.0994C44.0562 40.6931 43.5718 40.49 43.0093 40.49C42.4468 40.49 41.9585 40.6931 41.5444 41.0994ZM51.5288 51.5525C51.5288 50.9822 51.728 50.5095 52.1265 50.1345C52.5327 49.7517 53.021 49.5603 53.5913 49.5603C54.1616 49.5603 54.6499 49.7517 55.0562 50.1345C55.4702 50.5173 55.6772 50.99 55.6772 51.5525C55.6772 52.1306 55.4702 52.6111 55.0562 52.9939C54.6499 53.3767 54.1616 53.5681 53.5913 53.5681C53.021 53.5681 52.5327 53.3767 52.1265 52.9939C51.728 52.6111 51.5288 52.1306 51.5288 51.5525ZM57.7515 50.24L60.6929 48.7751C60.8647 49.1501 61.1851 49.49 61.6538 49.7947C62.1226 50.0994 62.5796 50.2634 63.0249 50.2869C63.5952 50.3181 64.103 50.158 64.5483 49.8064C64.9937 49.447 65.2397 49.0486 65.2866 48.6111C65.2944 48.5173 65.2983 48.447 65.2983 48.4001C65.3062 48.3455 65.3022 48.2322 65.2866 48.0603C65.271 47.8884 65.2437 47.7439 65.2046 47.6267C65.1655 47.5095 65.0952 47.3728 64.9937 47.2166C64.8921 47.0525 64.7632 46.9236 64.6069 46.8298C64.4585 46.7361 64.2593 46.658 64.0093 46.5955C63.7593 46.5251 63.4702 46.4978 63.1421 46.5134H61.4897V43.6423H63.1421C63.439 43.6423 63.6929 43.5876 63.9038 43.4783C64.1226 43.3611 64.2788 43.2361 64.3726 43.1033C64.4741 42.9705 64.5483 42.8064 64.5952 42.6111C64.6421 42.4158 64.6655 42.2791 64.6655 42.2009C64.6733 42.115 64.6772 42.0291 64.6772 41.9431V41.9314C64.6772 41.7439 64.6304 41.5408 64.5366 41.322C64.4429 41.1033 64.2671 40.9001 64.0093 40.7126C63.7593 40.5173 63.4546 40.4197 63.0952 40.4197C62.3452 40.4197 61.7944 40.7087 61.4429 41.2869L58.7358 39.6345C59.2124 38.8767 59.8843 38.2869 60.7515 37.865C61.6265 37.4353 62.5835 37.2478 63.6226 37.3025C64.9741 37.3728 66.0991 37.8416 66.9976 38.7087C67.896 39.5759 68.3257 40.5798 68.2866 41.7205C68.2866 42.3455 68.0991 42.9314 67.7241 43.4783C67.3569 44.0173 66.8726 44.4548 66.271 44.7908C67.1147 45.0955 67.7905 45.6697 68.2983 46.5134C68.8062 47.3494 69.0249 48.197 68.9546 49.0564C68.8687 49.9392 68.5327 50.7361 67.9468 51.447C67.3608 52.1501 66.6069 52.6892 65.6851 53.0642C64.771 53.4392 63.7983 53.5916 62.7671 53.5212C61.6733 53.4509 60.6733 53.1189 59.7671 52.5251C58.8608 51.9236 58.189 51.1619 57.7515 50.24ZM71.5913 45.4587C71.5913 44.5056 71.646 43.6384 71.7554 42.8572C71.8726 42.0759 72.0679 41.3337 72.3413 40.6306C72.6226 39.9275 72.9819 39.3376 73.4194 38.8611C73.8569 38.3845 74.4194 38.0056 75.1069 37.7244C75.7944 37.4431 76.5835 37.3025 77.4741 37.3025C78.3647 37.3025 79.1499 37.4431 79.8296 37.7244C80.5171 38.0056 81.0757 38.3845 81.5054 38.8611C81.9351 39.3376 82.2866 39.9314 82.5601 40.6423C82.8335 41.3455 83.0249 42.0876 83.1343 42.8689C83.2437 43.6423 83.2983 44.5056 83.2983 45.4587C83.2983 46.4041 83.2437 47.2634 83.1343 48.0369C83.0249 48.8103 82.8335 49.5486 82.5601 50.2517C82.2866 50.947 81.9351 51.533 81.5054 52.0095C81.0757 52.4861 80.5171 52.865 79.8296 53.1462C79.1499 53.4275 78.3647 53.5681 77.4741 53.5681C76.5835 53.5681 75.7944 53.4275 75.1069 53.1462C74.4194 52.865 73.8569 52.4861 73.4194 52.0095C72.9819 51.533 72.6226 50.947 72.3413 50.2517C72.0679 49.5486 71.8726 48.8103 71.7554 48.0369C71.646 47.2556 71.5913 46.3962 71.5913 45.4587ZM74.9546 45.4587C74.9546 46.1541 74.9976 46.783 75.0835 47.3455C75.1694 47.9001 75.3062 48.408 75.4937 48.8689C75.6812 49.322 75.9429 49.6775 76.2788 49.9353C76.6147 50.1853 77.0132 50.3103 77.4741 50.3103C79.1147 50.3103 79.9351 48.6931 79.9351 45.4587C79.9351 42.1931 79.1147 40.5603 77.4741 40.5603C77.0132 40.5603 76.6147 40.6892 76.2788 40.947C75.9429 41.197 75.6812 41.5564 75.4937 42.0251C75.3062 42.4861 75.1694 42.9978 75.0835 43.5603C74.9976 44.1228 74.9546 44.7556 74.9546 45.4587Z" fill="white"/>
</svg>
