<svg width="64" height="16" viewBox="0 0 64 16" fill="none" xmlns="http://www.w3.org/2000/svg">
<path d="M5.54773 0.68H8.62774L14.0077 15H11.0277L9.84773 11.58H4.32773L3.14773 15H0.167734L5.54773 0.68ZM8.96773 9.1L7.68773 5.52L7.16773 3.78H7.00773L6.48773 5.52L5.20773 9.1H8.96773ZM22.0712 13.82H21.9112C21.6712 14.2333 21.2978 14.5867 20.7912 14.88C20.2845 15.1733 19.6578 15.32 18.9112 15.32C18.2845 15.32 17.6845 15.1933 17.1112 14.94C16.5512 14.6733 16.0512 14.3133 15.6112 13.86C15.1845 13.3933 14.8445 12.84 14.5912 12.2C14.3378 11.56 14.2112 10.86 14.2112 10.1C14.2112 9.34 14.3378 8.64 14.5912 8C14.8445 7.36 15.1845 6.81333 15.6112 6.36C16.0512 5.89333 16.5512 5.53333 17.1112 5.28C17.6845 5.01333 18.2845 4.88 18.9112 4.88C19.6578 4.88 20.2845 5.02667 20.7912 5.32C21.2978 5.61333 21.6712 5.96667 21.9112 6.38H22.0712L21.9112 4.98V0.68H24.5312V15H22.0712V13.82ZM19.4512 12.9C19.7978 12.9 20.1245 12.84 20.4312 12.72C20.7512 12.5867 21.0312 12.4 21.2712 12.16C21.5112 11.92 21.7045 11.6267 21.8512 11.28C21.9978 10.9333 22.0712 10.54 22.0712 10.1C22.0712 9.66 21.9978 9.26667 21.8512 8.92C21.7045 8.57333 21.5112 8.28 21.2712 8.04C21.0312 7.8 20.7512 7.62 20.4312 7.5C20.1245 7.36667 19.7978 7.3 19.4512 7.3C19.1045 7.3 18.7712 7.36667 18.4512 7.5C18.1445 7.63333 17.8712 7.82 17.6312 8.06C17.3912 8.3 17.1978 8.59333 17.0512 8.94C16.9045 9.28667 16.8312 9.67333 16.8312 10.1C16.8312 10.5267 16.9045 10.9133 17.0512 11.26C17.1978 11.6067 17.3912 11.9 17.6312 12.14C17.8712 12.38 18.1445 12.5667 18.4512 12.7C18.7712 12.8333 19.1045 12.9 19.4512 12.9ZM26.4634 5.2H28.9234V6.48H29.0834C29.39 6 29.8034 5.61333 30.3234 5.32C30.8567 5.02667 31.4434 4.88 32.0834 4.88C32.83 4.88 33.4567 5.05333 33.9634 5.4C34.47 5.74667 34.83 6.17333 35.0434 6.68C35.35 6.18667 35.7834 5.76667 36.3434 5.42C36.9034 5.06 37.5834 4.88 38.3834 4.88C38.9834 4.88 39.5034 4.98 39.9434 5.18C40.3834 5.36667 40.7434 5.63333 41.0234 5.98C41.3167 6.32667 41.5367 6.74667 41.6834 7.24C41.83 7.72 41.9034 8.24667 41.9034 8.82V15H39.2834V9.3C39.2834 7.96667 38.7367 7.3 37.6434 7.3C37.2967 7.3 36.99 7.38 36.7234 7.54C36.4567 7.68667 36.23 7.89333 36.0434 8.16C35.87 8.41333 35.73 8.72 35.6234 9.08C35.53 9.44 35.4834 9.82667 35.4834 10.24V15H32.8634V9.3C32.8634 7.96667 32.29 7.3 31.1434 7.3C30.81 7.3 30.5167 7.38 30.2634 7.54C30.01 7.68667 29.7967 7.89333 29.6234 8.16C29.45 8.41333 29.3167 8.72 29.2234 9.08C29.13 9.44 29.0834 9.82667 29.0834 10.24V15H26.4634V5.2ZM45.221 3.78C44.9943 3.78 44.7743 3.74 44.561 3.66C44.361 3.56667 44.181 3.44667 44.021 3.3C43.8743 3.14 43.7543 2.96 43.661 2.76C43.581 2.56 43.541 2.34 43.541 2.1C43.541 1.86 43.581 1.64 43.661 1.44C43.7543 1.24 43.8743 1.06667 44.021 0.919999C44.181 0.759999 44.361 0.639999 44.561 0.559999C44.7743 0.466666 44.9943 0.419999 45.221 0.419999C45.6877 0.419999 46.0877 0.586666 46.421 0.919999C46.7543 1.24 46.921 1.63333 46.921 2.1C46.921 2.56667 46.7543 2.96667 46.421 3.3C46.0877 3.62 45.6877 3.78 45.221 3.78ZM43.921 15V5.2H46.541V15H43.921ZM51.0968 6.48H51.2568C51.5635 5.98667 51.9768 5.6 52.4968 5.32C53.0168 5.02667 53.6101 4.88 54.2768 4.88C54.8901 4.88 55.4301 4.98 55.8968 5.18C56.3635 5.38 56.7435 5.66667 57.0368 6.04C57.3435 6.4 57.5701 6.84 57.7168 7.36C57.8768 7.86667 57.9568 8.43333 57.9568 9.06V15H55.3368V9.38C55.3368 8.67333 55.1768 8.15333 54.8568 7.82C54.5501 7.47333 54.0968 7.3 53.4968 7.3C53.1368 7.3 52.8168 7.38 52.5368 7.54C52.2701 7.68667 52.0368 7.89333 51.8368 8.16C51.6501 8.41333 51.5035 8.72 51.3968 9.08C51.3035 9.42667 51.2568 9.8 51.2568 10.2V15H48.6368V5.2H51.0968V6.48ZM61.4012 15.12C60.9212 15.12 60.5078 14.9533 60.1612 14.62C59.8278 14.2733 59.6612 13.86 59.6612 13.38C59.6612 12.9 59.8278 12.4933 60.1612 12.16C60.5078 11.8267 60.9212 11.66 61.4012 11.66C61.8812 11.66 62.2878 11.8267 62.6212 12.16C62.9545 12.4933 63.1212 12.9 63.1212 13.38C63.1212 13.86 62.9545 14.2733 62.6212 14.62C62.2878 14.9533 61.8812 15.12 61.4012 15.12ZM60.0412 4.8V0.68H62.7412V4.8L62.4612 10.08H60.3212L60.0412 4.8Z" fill="url(#paint0_linear)"/>
<defs>
<linearGradient id="paint0_linear" x1="32" y1="-6" x2="32" y2="14" gradientUnits="userSpaceOnUse">
<stop stop-color="#575274"/>
<stop offset="1" stop-color="#312D46"/>
</linearGradient>
</defs>
</svg>
