<svg width="33" height="10" viewBox="0 0 33 10" fill="none" xmlns="http://www.w3.org/2000/svg">
<path d="M5.88 0.440013V1.49601H1.968V4.22001H5.496V5.25201H1.968V7.97601H5.88V9.03201H0.864V0.440013H5.88ZM11.0159 5.76801H7.17591V4.85601H11.0159V5.76801ZM13.4596 9.03201H12.3556V3.15201H13.4116V3.96801H13.4596C13.6276 3.68001 13.8836 3.44001 14.2276 3.24801C14.5796 3.05601 14.9276 2.96001 15.2716 2.96001C15.7036 2.96001 16.0836 3.06001 16.4116 3.26001C16.7396 3.46001 16.9796 3.73601 17.1316 4.08801C17.6196 3.33601 18.2956 2.96001 19.1596 2.96001C19.8396 2.96001 20.3636 3.16801 20.7316 3.58401C21.0996 4.00001 21.2836 4.59201 21.2836 5.36001V9.03201H20.1796V5.52801C20.1796 4.97601 20.0796 4.58001 19.8796 4.34001C19.6796 4.09201 19.3436 3.96801 18.8716 3.96801C18.4476 3.96801 18.0916 4.14801 17.8036 4.50801C17.5156 4.86801 17.3716 5.29201 17.3716 5.78001V9.03201H16.2676V5.52801C16.2676 4.97601 16.1676 4.58001 15.9676 4.34001C15.7676 4.09201 15.4316 3.96801 14.9596 3.96801C14.5356 3.96801 14.1796 4.14801 13.8916 4.50801C13.6036 4.86801 13.4596 5.29201 13.4596 5.78001V9.03201ZM23.3198 7.23201C23.3198 7.52001 23.4398 7.76001 23.6798 7.95201C23.9278 8.14401 24.2158 8.24001 24.5438 8.24001C25.0078 8.24001 25.4198 8.06801 25.7798 7.72401C26.1478 7.38001 26.3318 6.97601 26.3318 6.51201C25.9878 6.24001 25.5078 6.10401 24.8918 6.10401C24.4438 6.10401 24.0678 6.21201 23.7638 6.42801C23.4678 6.64401 23.3198 6.91201 23.3198 7.23201ZM24.7478 2.96001C25.5638 2.96001 26.2078 3.18001 26.6798 3.62001C27.1518 4.05201 27.3878 4.64801 27.3878 5.40801V9.03201H26.3318V8.21601H26.2838C25.8278 8.88801 25.2198 9.22401 24.4598 9.22401C23.8118 9.22401 23.2678 9.03201 22.8278 8.64801C22.3958 8.26401 22.1798 7.78401 22.1798 7.20801C22.1798 6.60001 22.4078 6.11601 22.8638 5.75601C23.3278 5.39601 23.9438 5.21601 24.7118 5.21601C25.3678 5.21601 25.9078 5.33601 26.3318 5.57601V5.32401C26.3318 4.94001 26.1798 4.61601 25.8758 4.35201C25.5718 4.08001 25.2158 3.94401 24.8078 3.94401C24.1918 3.94401 23.7038 4.20401 23.3438 4.72401L22.3718 4.11201C22.9078 3.34401 23.6998 2.96001 24.7478 2.96001ZM30.0609 1.12401C30.0609 1.34001 29.9849 1.52401 29.8329 1.67601C29.6809 1.82801 29.4969 1.90401 29.2809 1.90401C29.0649 1.90401 28.8809 1.82801 28.7289 1.67601C28.5769 1.52401 28.5009 1.34001 28.5009 1.12401C28.5009 0.908012 28.5769 0.724012 28.7289 0.572012C28.8809 0.420012 29.0649 0.344012 29.2809 0.344012C29.4969 0.344012 29.6809 0.420012 29.8329 0.572012C29.9849 0.724012 30.0609 0.908012 30.0609 1.12401ZM29.8329 3.15201V9.03201H28.7289V3.15201H29.8329ZM32.3737 0.440013V9.03201H31.2697V0.440013H32.3737Z" fill="url(#paint0_linear)"/>
<defs>
<linearGradient id="paint0_linear" x1="28" y1="-2.96799" x2="28" y2="12.1244" gradientUnits="userSpaceOnUse">
<stop stop-color="#575274"/>
<stop offset="1" stop-color="#312D46"/>
</linearGradient>
</defs>
</svg>
