<svg width="25" height="11" viewBox="0 0 25 11" fill="none" xmlns="http://www.w3.org/2000/svg">
<path d="M2.70366 2.29388V4.61788H6.72166V6.40988H2.70366V8.73388H7.16966V10.5259H0.813664V0.501879H7.16966V2.29388H2.70366ZM13.52 9.69988H13.408C13.24 9.98921 12.9786 10.2365 12.624 10.4419C12.2693 10.6472 11.8306 10.7499 11.308 10.7499C10.8693 10.7499 10.4493 10.6612 10.048 10.4839C9.65598 10.2972 9.30598 10.0452 8.99798 9.72788C8.69931 9.40121 8.46131 9.01388 8.28398 8.56588C8.10664 8.11788 8.01798 7.62788 8.01798 7.09588C8.01798 6.56388 8.10664 6.07388 8.28398 5.62588C8.46131 5.17788 8.69931 4.79521 8.99798 4.47788C9.30598 4.15121 9.65598 3.89921 10.048 3.72188C10.4493 3.53521 10.8693 3.44188 11.308 3.44188C11.8306 3.44188 12.2693 3.54455 12.624 3.74988C12.9786 3.95521 13.24 4.20255 13.408 4.49188H13.52L13.408 3.51188V0.501879H15.242V10.5259H13.52V9.69988ZM11.686 9.05588C11.9286 9.05588 12.1573 9.01388 12.372 8.92988C12.596 8.83655 12.792 8.70588 12.96 8.53788C13.128 8.36988 13.2633 8.16455 13.366 7.92188C13.4686 7.67921 13.52 7.40388 13.52 7.09588C13.52 6.78788 13.4686 6.51255 13.366 6.26988C13.2633 6.02721 13.128 5.82188 12.96 5.65388C12.792 5.48588 12.596 5.35988 12.372 5.27588C12.1573 5.18255 11.9286 5.13588 11.686 5.13588C11.4433 5.13588 11.21 5.18255 10.986 5.27588C10.7713 5.36921 10.58 5.49988 10.412 5.66788C10.244 5.83588 10.1086 6.04121 10.006 6.28388C9.90331 6.52655 9.85198 6.79721 9.85198 7.09588C9.85198 7.39455 9.90331 7.66521 10.006 7.90788C10.1086 8.15055 10.244 8.35588 10.412 8.52388C10.58 8.69188 10.7713 8.82255 10.986 8.91588C11.21 9.00921 11.4433 9.05588 11.686 9.05588ZM17.8265 2.67188C17.6678 2.67188 17.5138 2.64388 17.3645 2.58788C17.2245 2.52255 17.0985 2.43855 16.9865 2.33588C16.8838 2.22388 16.7998 2.09788 16.7345 1.95788C16.6785 1.81788 16.6505 1.66388 16.6505 1.49588C16.6505 1.32788 16.6785 1.17388 16.7345 1.03388C16.7998 0.893879 16.8838 0.772545 16.9865 0.669878C17.0985 0.557878 17.2245 0.473878 17.3645 0.417878C17.5138 0.352545 17.6678 0.319878 17.8265 0.319878C18.1532 0.319878 18.4332 0.436545 18.6665 0.669878C18.8998 0.893879 19.0165 1.16921 19.0165 1.49588C19.0165 1.82255 18.8998 2.10255 18.6665 2.33588C18.4332 2.55988 18.1532 2.67188 17.8265 2.67188ZM16.9165 10.5259V3.66588H18.7505V10.5259H16.9165ZM21.1152 5.23388H19.9112V3.66588H21.1152V1.56588H22.9492V3.66588H24.6292V5.23388H22.9492V7.89388C22.9492 8.05255 22.9632 8.20188 22.9912 8.34188C23.0285 8.47255 23.0939 8.58455 23.1872 8.67788C23.3179 8.82721 23.5045 8.90188 23.7472 8.90188C23.9059 8.90188 24.0319 8.88788 24.1252 8.85988C24.2185 8.82255 24.3072 8.77588 24.3912 8.71988L24.9092 10.3299C24.6945 10.4325 24.4612 10.5072 24.2092 10.5539C23.9665 10.6099 23.6959 10.6379 23.3972 10.6379C23.0519 10.6379 22.7392 10.5865 22.4592 10.4839C22.1885 10.3719 21.9599 10.2225 21.7732 10.0359C21.3345 9.61588 21.1152 9.01855 21.1152 8.24388V5.23388Z" fill="white"/>
</svg>
