<svg width="164" height="12" viewBox="0 0 164 12" fill="none" xmlns="http://www.w3.org/2000/svg">
<path d="M0.864 9V0.408H3.972C4.652 0.408 5.236 0.632 5.724 1.08C6.212 1.52 6.456 2.076 6.456 2.748C6.456 3.596 6.068 4.192 5.292 4.536V4.584C5.732 4.728 6.084 4.98 6.348 5.34C6.612 5.692 6.744 6.096 6.744 6.552C6.744 7.256 6.488 7.84 5.976 8.304C5.48 8.768 4.868 9 4.14 9H0.864ZM1.968 1.464V4.092H3.972C4.364 4.092 4.692 3.96 4.956 3.696C5.22 3.424 5.352 3.116 5.352 2.772C5.352 2.436 5.224 2.132 4.968 1.86C4.712 1.596 4.396 1.464 4.02 1.464H1.968ZM1.968 5.124V7.944H4.188C4.588 7.944 4.928 7.804 5.208 7.524C5.48 7.244 5.616 6.912 5.616 6.528C5.616 6.152 5.476 5.824 5.196 5.544C4.916 5.264 4.564 5.124 4.14 5.124H1.968ZM10.437 9.192C9.573 9.192 8.861 8.896 8.301 8.304C7.741 7.712 7.461 6.964 7.461 6.06C7.461 5.164 7.733 4.42 8.277 3.828C8.821 3.228 9.517 2.928 10.365 2.928C11.237 2.928 11.929 3.212 12.441 3.78C12.961 4.34 13.221 5.128 13.221 6.144L13.209 6.264H8.589C8.605 6.84 8.797 7.304 9.165 7.656C9.533 8.008 9.973 8.184 10.485 8.184C11.189 8.184 11.741 7.832 12.141 7.128L13.125 7.608C12.861 8.104 12.493 8.492 12.021 8.772C11.557 9.052 11.029 9.192 10.437 9.192ZM8.673 5.352H12.045C12.013 4.944 11.845 4.608 11.541 4.344C11.245 4.072 10.845 3.936 10.341 3.936C9.925 3.936 9.565 4.064 9.261 4.32C8.965 4.576 8.769 4.92 8.673 5.352ZM18.7892 7.368C18.7892 7.88 18.5652 8.312 18.1172 8.664C17.6692 9.016 17.1052 9.192 16.4252 9.192C15.8332 9.192 15.3132 9.04 14.8652 8.736C14.4172 8.424 14.0972 8.016 13.9052 7.512L14.8892 7.092C15.0332 7.444 15.2412 7.72 15.5132 7.92C15.7932 8.112 16.0972 8.208 16.4252 8.208C16.7772 8.208 17.0692 8.132 17.3012 7.98C17.5412 7.828 17.6612 7.648 17.6612 7.44C17.6612 7.064 17.3732 6.788 16.7972 6.612L15.7892 6.36C14.6452 6.072 14.0732 5.52 14.0732 4.704C14.0732 4.168 14.2892 3.74 14.7212 3.42C15.1612 3.092 15.7212 2.928 16.4012 2.928C16.9212 2.928 17.3892 3.052 17.8052 3.3C18.2292 3.548 18.5252 3.88 18.6932 4.296L17.7092 4.704C17.5972 4.456 17.4132 4.264 17.1572 4.128C16.9092 3.984 16.6292 3.912 16.3172 3.912C16.0292 3.912 15.7692 3.984 15.5372 4.128C15.3132 4.272 15.2012 4.448 15.2012 4.656C15.2012 4.992 15.5172 5.232 16.1492 5.376L17.0372 5.604C18.2052 5.892 18.7892 6.48 18.7892 7.368ZM22.0195 9.096C21.5395 9.096 21.1395 8.948 20.8195 8.652C20.5075 8.356 20.3475 7.944 20.3395 7.416V4.128H19.3075V3.12H20.3395V1.32H21.4435V3.12H22.8835V4.128H21.4435V7.056C21.4435 7.448 21.5195 7.716 21.6715 7.86C21.8235 7.996 21.9955 8.064 22.1875 8.064C22.2755 8.064 22.3595 8.056 22.4395 8.04C22.5275 8.016 22.6075 7.988 22.6795 7.956L23.0275 8.94C22.7395 9.044 22.4035 9.096 22.0195 9.096ZM31.7032 6.708C31.7032 7.46 31.4272 8.064 30.8752 8.52C30.3152 8.968 29.6352 9.192 28.8352 9.192C28.1232 9.192 27.4952 8.984 26.9512 8.568C26.4072 8.152 26.0312 7.584 25.8232 6.864L26.8792 6.432C26.9512 6.688 27.0512 6.92 27.1792 7.128C27.3072 7.336 27.4552 7.516 27.6232 7.668C27.7992 7.812 27.9912 7.928 28.1992 8.016C28.4072 8.096 28.6272 8.136 28.8592 8.136C29.3632 8.136 29.7752 8.008 30.0952 7.752C30.4152 7.488 30.5752 7.14 30.5752 6.708C30.5752 6.348 30.4432 6.04 30.1792 5.784C29.9312 5.536 29.4672 5.296 28.7872 5.064C28.0992 4.816 27.6712 4.648 27.5032 4.56C26.5912 4.096 26.1352 3.412 26.1352 2.508C26.1352 1.876 26.3872 1.336 26.8912 0.887999C27.4032 0.439999 28.0312 0.215999 28.7752 0.215999C29.4312 0.215999 29.9992 0.383999 30.4792 0.719999C30.9592 1.048 31.2792 1.46 31.4392 1.956L30.4072 2.388C30.3112 2.068 30.1192 1.804 29.8312 1.596C29.5512 1.38 29.2072 1.272 28.7992 1.272C28.3672 1.272 28.0032 1.392 27.7072 1.632C27.4112 1.856 27.2632 2.148 27.2632 2.508C27.2632 2.804 27.3792 3.06 27.6112 3.276C27.8672 3.492 28.4232 3.748 29.2792 4.044C30.1512 4.34 30.7712 4.704 31.1392 5.136C31.5152 5.56 31.7032 6.084 31.7032 6.708ZM32.84 0.408H33.944V3.12L33.896 3.936H33.944C34.112 3.648 34.368 3.408 34.712 3.216C35.064 3.024 35.428 2.928 35.804 2.928C36.524 2.928 37.076 3.136 37.46 3.552C37.852 3.96 38.048 4.544 38.048 5.304V9H36.944V5.52C36.944 4.464 36.476 3.936 35.54 3.936C35.092 3.936 34.712 4.124 34.4 4.5C34.096 4.868 33.944 5.3 33.944 5.796V9H32.84V0.408ZM39.0079 6.06C39.0079 5.156 39.2919 4.408 39.8599 3.816C40.4359 3.224 41.1599 2.928 42.0319 2.928C42.9039 2.928 43.6239 3.224 44.1919 3.816C44.7679 4.408 45.0559 5.156 45.0559 6.06C45.0559 6.972 44.7679 7.72 44.1919 8.304C43.6239 8.896 42.9039 9.192 42.0319 9.192C41.1599 9.192 40.4359 8.896 39.8599 8.304C39.2919 7.712 39.0079 6.964 39.0079 6.06ZM40.1119 6.06C40.1119 6.692 40.2959 7.204 40.6639 7.596C41.0319 7.988 41.4879 8.184 42.0319 8.184C42.5759 8.184 43.0319 7.988 43.3999 7.596C43.7679 7.204 43.9519 6.692 43.9519 6.06C43.9519 5.436 43.7679 4.928 43.3999 4.536C43.0239 4.136 42.5679 3.936 42.0319 3.936C41.4959 3.936 41.0399 4.136 40.6639 4.536C40.2959 4.928 40.1119 5.436 40.1119 6.06ZM48.8801 8.184C49.4081 8.184 49.8521 7.984 50.2121 7.584C50.5721 7.192 50.7521 6.684 50.7521 6.06C50.7521 5.444 50.5721 4.936 50.2121 4.536C49.8521 4.136 49.4081 3.936 48.8801 3.936C48.3441 3.936 47.8961 4.136 47.5361 4.536C47.1841 4.936 47.0081 5.444 47.0081 6.06C47.0081 6.684 47.1841 7.196 47.5361 7.596C47.8961 7.988 48.3441 8.184 48.8801 8.184ZM49.0601 9.192C48.6281 9.192 48.2321 9.1 47.8721 8.916C47.5201 8.732 47.2481 8.488 47.0561 8.184H47.0081L47.0561 9V11.592H45.9521V3.12H47.0081V3.936H47.0561C47.2481 3.632 47.5201 3.388 47.8721 3.204C48.2321 3.02 48.6281 2.928 49.0601 2.928C49.8361 2.928 50.4921 3.232 51.0281 3.84C51.5801 4.456 51.8561 5.196 51.8561 6.06C51.8561 6.932 51.5801 7.672 51.0281 8.28C50.4921 8.888 49.8361 9.192 49.0601 9.192ZM55.6301 8.184C56.1581 8.184 56.6021 7.984 56.9621 7.584C57.3221 7.192 57.5021 6.684 57.5021 6.06C57.5021 5.444 57.3221 4.936 56.9621 4.536C56.6021 4.136 56.1581 3.936 55.6301 3.936C55.0941 3.936 54.6461 4.136 54.2861 4.536C53.9341 4.936 53.7581 5.444 53.7581 6.06C53.7581 6.684 53.9341 7.196 54.2861 7.596C54.6461 7.988 55.0941 8.184 55.6301 8.184ZM55.8101 9.192C55.3781 9.192 54.9821 9.1 54.6221 8.916C54.2701 8.732 53.9981 8.488 53.8061 8.184H53.7581L53.8061 9V11.592H52.7021V3.12H53.7581V3.936H53.8061C53.9981 3.632 54.2701 3.388 54.6221 3.204C54.9821 3.02 55.3781 2.928 55.8101 2.928C56.5861 2.928 57.2421 3.232 57.7781 3.84C58.3301 4.456 58.6061 5.196 58.6061 6.06C58.6061 6.932 58.3301 7.672 57.7781 8.28C57.2421 8.888 56.5861 9.192 55.8101 9.192ZM60.9867 1.092C60.9867 1.308 60.9107 1.492 60.7587 1.644C60.6067 1.796 60.4227 1.872 60.2067 1.872C59.9907 1.872 59.8067 1.796 59.6547 1.644C59.5027 1.492 59.4267 1.308 59.4267 1.092C59.4267 0.875999 59.5027 0.691999 59.6547 0.539999C59.8067 0.388 59.9907 0.312 60.2067 0.312C60.4227 0.312 60.6067 0.388 60.7587 0.539999C60.9107 0.691999 60.9867 0.875999 60.9867 1.092ZM60.7587 3.12V9H59.6547V3.12H60.7587ZM62.1954 3.12H63.2514V3.936H63.2994C63.4674 3.648 63.7234 3.408 64.0674 3.216C64.4194 3.024 64.7834 2.928 65.1594 2.928C65.8794 2.928 66.4314 3.136 66.8154 3.552C67.2074 3.96 67.4034 4.544 67.4034 5.304V9H66.2994V5.376C66.2754 4.416 65.7914 3.936 64.8474 3.936C64.4074 3.936 64.0394 4.116 63.7434 4.476C63.4474 4.828 63.2994 5.252 63.2994 5.748V9H62.1954V3.12ZM71.2808 8.184C71.8248 8.184 72.2688 7.988 72.6128 7.596C72.9728 7.204 73.1528 6.692 73.1528 6.06C73.1528 5.444 72.9728 4.936 72.6128 4.536C72.2608 4.136 71.8168 3.936 71.2808 3.936C70.7528 3.936 70.3088 4.136 69.9488 4.536C69.5888 4.936 69.4088 5.444 69.4088 6.06C69.4088 6.684 69.5888 7.192 69.9488 7.584C70.3088 7.984 70.7528 8.184 71.2808 8.184ZM71.2448 11.784C70.9168 11.784 70.6088 11.74 70.3208 11.652C70.0328 11.572 69.7688 11.456 69.5288 11.304C69.2968 11.152 69.0968 10.972 68.9288 10.764C68.7608 10.556 68.6328 10.324 68.5448 10.068L69.5888 9.636C69.7088 9.98 69.9168 10.256 70.2128 10.464C70.5088 10.672 70.8528 10.776 71.2448 10.776C71.8448 10.776 72.3128 10.596 72.6488 10.236C72.9848 9.876 73.1528 9.38 73.1528 8.748V8.184H73.1048C72.8968 8.496 72.6128 8.744 72.2528 8.928C71.9008 9.104 71.5168 9.192 71.1008 9.192C70.3328 9.192 69.6728 8.892 69.1208 8.292C68.5768 7.676 68.3048 6.932 68.3048 6.06C68.3048 5.188 68.5768 4.448 69.1208 3.84C69.6728 3.232 70.3328 2.928 71.1008 2.928C71.5168 2.928 71.9008 3.02 72.2528 3.204C72.6128 3.38 72.8968 3.624 73.1048 3.936H73.1528V3.12H74.2088V8.748C74.2088 9.692 73.9408 10.432 73.4048 10.968C72.8608 11.512 72.1408 11.784 71.2448 11.784ZM83.3995 0.408V1.464H79.4875V4.188H83.0155V5.22H79.4875V7.944H83.3995V9H78.3835V0.408H83.3995ZM87.3743 6.012L89.4743 9H88.1783L86.7263 6.828L85.2983 9H84.0023L86.0783 6.012L84.0503 3.12H85.2983L86.7503 5.196L88.1303 3.12H89.4263L87.3743 6.012ZM93.1184 8.184C93.6464 8.184 94.0904 7.984 94.4504 7.584C94.8104 7.192 94.9904 6.684 94.9904 6.06C94.9904 5.444 94.8104 4.936 94.4504 4.536C94.0904 4.136 93.6464 3.936 93.1184 3.936C92.5824 3.936 92.1344 4.136 91.7744 4.536C91.4224 4.936 91.2464 5.444 91.2464 6.06C91.2464 6.684 91.4224 7.196 91.7744 7.596C92.1344 7.988 92.5824 8.184 93.1184 8.184ZM93.2984 9.192C92.8664 9.192 92.4704 9.1 92.1104 8.916C91.7584 8.732 91.4864 8.488 91.2944 8.184H91.2464L91.2944 9V11.592H90.1904V3.12H91.2464V3.936H91.2944C91.4864 3.632 91.7584 3.388 92.1104 3.204C92.4704 3.02 92.8664 2.928 93.2984 2.928C94.0744 2.928 94.7304 3.232 95.2664 3.84C95.8184 4.456 96.0944 5.196 96.0944 6.06C96.0944 6.932 95.8184 7.672 95.2664 8.28C94.7304 8.888 94.0744 9.192 93.2984 9.192ZM99.7456 9.192C98.8816 9.192 98.1696 8.896 97.6096 8.304C97.0496 7.712 96.7696 6.964 96.7696 6.06C96.7696 5.164 97.0416 4.42 97.5856 3.828C98.1296 3.228 98.8256 2.928 99.6736 2.928C100.546 2.928 101.238 3.212 101.75 3.78C102.27 4.34 102.53 5.128 102.53 6.144L102.518 6.264H97.8976C97.9136 6.84 98.1056 7.304 98.4736 7.656C98.8416 8.008 99.2816 8.184 99.7936 8.184C100.498 8.184 101.05 7.832 101.45 7.128L102.434 7.608C102.17 8.104 101.802 8.492 101.33 8.772C100.866 9.052 100.338 9.192 99.7456 9.192ZM97.9816 5.352H101.354C101.322 4.944 101.154 4.608 100.85 4.344C100.554 4.072 100.154 3.936 99.6496 3.936C99.2336 3.936 98.8736 4.064 98.5696 4.32C98.2736 4.576 98.0776 4.92 97.9816 5.352ZM104.643 9H103.539V3.12H104.595V4.08H104.643C104.755 3.768 104.983 3.504 105.327 3.288C105.679 3.064 106.023 2.952 106.359 2.952C106.679 2.952 106.951 3 107.175 3.096L106.839 4.164C106.703 4.108 106.487 4.08 106.191 4.08C105.775 4.08 105.411 4.248 105.099 4.584C104.795 4.92 104.643 5.312 104.643 5.76V9ZM109.327 1.092C109.327 1.308 109.251 1.492 109.099 1.644C108.947 1.796 108.763 1.872 108.547 1.872C108.331 1.872 108.147 1.796 107.995 1.644C107.843 1.492 107.767 1.308 107.767 1.092C107.767 0.875999 107.843 0.691999 107.995 0.539999C108.147 0.388 108.331 0.312 108.547 0.312C108.763 0.312 108.947 0.388 109.099 0.539999C109.251 0.691999 109.327 0.875999 109.327 1.092ZM109.099 3.12V9H107.995V3.12H109.099ZM113.117 9.192C112.253 9.192 111.541 8.896 110.981 8.304C110.421 7.712 110.141 6.964 110.141 6.06C110.141 5.164 110.413 4.42 110.957 3.828C111.501 3.228 112.197 2.928 113.045 2.928C113.917 2.928 114.609 3.212 115.121 3.78C115.641 4.34 115.901 5.128 115.901 6.144L115.889 6.264H111.269C111.285 6.84 111.477 7.304 111.845 7.656C112.213 8.008 112.653 8.184 113.165 8.184C113.869 8.184 114.421 7.832 114.821 7.128L115.805 7.608C115.541 8.104 115.173 8.492 114.701 8.772C114.237 9.052 113.709 9.192 113.117 9.192ZM111.353 5.352H114.725C114.693 4.944 114.525 4.608 114.221 4.344C113.925 4.072 113.525 3.936 113.021 3.936C112.605 3.936 112.245 4.064 111.941 4.32C111.645 4.576 111.449 4.92 111.353 5.352ZM116.91 3.12H117.966V3.936H118.014C118.182 3.648 118.438 3.408 118.782 3.216C119.134 3.024 119.498 2.928 119.874 2.928C120.594 2.928 121.146 3.136 121.53 3.552C121.922 3.96 122.118 4.544 122.118 5.304V9H121.014V5.376C120.99 4.416 120.506 3.936 119.562 3.936C119.122 3.936 118.754 4.116 118.458 4.476C118.162 4.828 118.014 5.252 118.014 5.748V9H116.91V3.12ZM126.102 9.192C125.23 9.192 124.506 8.896 123.93 8.304C123.362 7.696 123.078 6.948 123.078 6.06C123.078 5.156 123.362 4.408 123.93 3.816C124.506 3.224 125.23 2.928 126.102 2.928C126.702 2.928 127.226 3.08 127.674 3.384C128.122 3.68 128.458 4.092 128.682 4.62L127.674 5.04C127.362 4.304 126.814 3.936 126.03 3.936C125.526 3.936 125.09 4.14 124.722 4.548C124.362 4.956 124.182 5.46 124.182 6.06C124.182 6.66 124.362 7.164 124.722 7.572C125.09 7.98 125.526 8.184 126.03 8.184C126.838 8.184 127.406 7.816 127.734 7.08L128.718 7.5C128.502 8.028 128.162 8.444 127.698 8.748C127.242 9.044 126.71 9.192 126.102 9.192ZM132.265 9.192C131.401 9.192 130.689 8.896 130.129 8.304C129.569 7.712 129.289 6.964 129.289 6.06C129.289 5.164 129.561 4.42 130.105 3.828C130.649 3.228 131.345 2.928 132.193 2.928C133.065 2.928 133.757 3.212 134.269 3.78C134.789 4.34 135.049 5.128 135.049 6.144L135.037 6.264H130.417C130.433 6.84 130.625 7.304 130.993 7.656C131.361 8.008 131.801 8.184 132.313 8.184C133.017 8.184 133.569 7.832 133.969 7.128L134.953 7.608C134.689 8.104 134.321 8.492 133.849 8.772C133.385 9.052 132.857 9.192 132.265 9.192ZM130.501 5.352H133.873C133.841 4.944 133.673 4.608 133.369 4.344C133.073 4.072 132.673 3.936 132.169 3.936C131.753 3.936 131.393 4.064 131.089 4.32C130.793 4.576 130.597 4.92 130.501 5.352ZM138.695 0.408H139.799V3.12L139.751 3.936H139.799C139.967 3.648 140.223 3.408 140.567 3.216C140.919 3.024 141.283 2.928 141.659 2.928C142.379 2.928 142.931 3.136 143.315 3.552C143.707 3.96 143.903 4.544 143.903 5.304V9H142.799V5.52C142.799 4.464 142.331 3.936 141.395 3.936C140.947 3.936 140.567 4.124 140.255 4.5C139.951 4.868 139.799 5.3 139.799 5.796V9H138.695V0.408ZM147.839 9.192C146.975 9.192 146.263 8.896 145.703 8.304C145.143 7.712 144.863 6.964 144.863 6.06C144.863 5.164 145.135 4.42 145.679 3.828C146.223 3.228 146.919 2.928 147.767 2.928C148.639 2.928 149.331 3.212 149.843 3.78C150.363 4.34 150.623 5.128 150.623 6.144L150.611 6.264H145.991C146.007 6.84 146.199 7.304 146.567 7.656C146.935 8.008 147.375 8.184 147.887 8.184C148.591 8.184 149.143 7.832 149.543 7.128L150.527 7.608C150.263 8.104 149.895 8.492 149.423 8.772C148.959 9.052 148.431 9.192 147.839 9.192ZM146.075 5.352H149.447C149.415 4.944 149.247 4.608 148.943 4.344C148.647 4.072 148.247 3.936 147.743 3.936C147.327 3.936 146.967 4.064 146.663 4.32C146.367 4.576 146.171 4.92 146.075 5.352ZM152.737 9H151.633V3.12H152.689V4.08H152.737C152.849 3.768 153.077 3.504 153.421 3.288C153.773 3.064 154.117 2.952 154.453 2.952C154.773 2.952 155.045 3 155.269 3.096L154.933 4.164C154.797 4.108 154.581 4.08 154.285 4.08C153.869 4.08 153.505 4.248 153.193 4.584C152.889 4.92 152.737 5.312 152.737 5.76V9ZM158.269 9.192C157.405 9.192 156.693 8.896 156.133 8.304C155.573 7.712 155.293 6.964 155.293 6.06C155.293 5.164 155.565 4.42 156.109 3.828C156.653 3.228 157.349 2.928 158.197 2.928C159.069 2.928 159.761 3.212 160.273 3.78C160.793 4.34 161.053 5.128 161.053 6.144L161.041 6.264H156.421C156.437 6.84 156.629 7.304 156.997 7.656C157.365 8.008 157.805 8.184 158.317 8.184C159.021 8.184 159.573 7.832 159.973 7.128L160.957 7.608C160.693 8.104 160.325 8.492 159.853 8.772C159.389 9.052 158.861 9.192 158.269 9.192ZM156.505 5.352H159.877C159.845 4.944 159.677 4.608 159.373 4.344C159.077 4.072 158.677 3.936 158.173 3.936C157.757 3.936 157.397 4.064 157.093 4.32C156.797 4.576 156.601 4.92 156.505 5.352ZM163.599 8.256C163.599 8.48 163.519 8.672 163.359 8.832C163.207 8.992 163.015 9.072 162.783 9.072C162.559 9.072 162.367 8.992 162.207 8.832C162.047 8.672 161.967 8.48 161.967 8.256C161.967 8.024 162.047 7.832 162.207 7.68C162.367 7.52 162.559 7.44 162.783 7.44C163.015 7.44 163.207 7.52 163.359 7.68C163.519 7.832 163.599 8.024 163.599 8.256Z" fill="url(#paint0_linear)"/>
<defs>
<linearGradient id="paint0_linear" x1="82.5" y1="-4" x2="82.5" y2="14" gradientUnits="userSpaceOnUse">
<stop stop-color="#575274"/>
<stop offset="1" stop-color="#312D46"/>
</linearGradient>
</defs>
</svg>
