<svg width="160" height="64" viewBox="0 0 160 64" fill="none" xmlns="http://www.w3.org/2000/svg">
<rect width="160" height="64" rx="16" fill="url(#paint0_linear)"/>
<path d="M62.074 36.724C61.6447 36.724 61.234 36.6633 60.842 36.542C60.45 36.4207 60.0907 36.2387 59.764 35.996C59.4373 35.7533 59.1527 35.4593 58.91 35.114C58.6673 34.7593 58.476 34.3487 58.336 33.882L60.114 33.182C60.2447 33.686 60.4733 34.106 60.8 34.442C61.1267 34.7687 61.556 34.932 62.088 34.932C62.284 34.932 62.4707 34.9087 62.648 34.862C62.8347 34.806 62.998 34.7313 63.138 34.638C63.2873 34.5353 63.404 34.4093 63.488 34.26C63.572 34.1107 63.614 33.938 63.614 33.742C63.614 33.5553 63.5813 33.3873 63.516 33.238C63.4507 33.0887 63.3387 32.9487 63.18 32.818C63.0307 32.6873 62.83 32.5613 62.578 32.44C62.3353 32.3187 62.032 32.1927 61.668 32.062L61.052 31.838C60.7813 31.7447 60.506 31.6187 60.226 31.46C59.9553 31.3013 59.708 31.11 59.484 30.886C59.26 30.662 59.0733 30.4007 58.924 30.102C58.784 29.794 58.714 29.4487 58.714 29.066C58.714 28.674 58.7887 28.31 58.938 27.974C59.0967 27.6287 59.316 27.33 59.596 27.078C59.8853 26.8167 60.226 26.616 60.618 26.476C61.0193 26.3267 61.4627 26.252 61.948 26.252C62.452 26.252 62.886 26.322 63.25 26.462C63.6233 26.5927 63.936 26.7653 64.188 26.98C64.4493 27.1853 64.6593 27.414 64.818 27.666C64.9767 27.918 65.0933 28.156 65.168 28.38L63.502 29.08C63.4087 28.8 63.236 28.548 62.984 28.324C62.7413 28.1 62.4053 27.988 61.976 27.988C61.5653 27.988 61.2247 28.086 60.954 28.282C60.6833 28.4687 60.548 28.716 60.548 29.024C60.548 29.3227 60.6787 29.5793 60.94 29.794C61.2013 29.9993 61.6167 30.2 62.186 30.396L62.816 30.606C63.2173 30.746 63.5813 30.9093 63.908 31.096C64.244 31.2733 64.5287 31.488 64.762 31.74C65.0047 31.992 65.1867 32.2813 65.308 32.608C65.4387 32.9253 65.504 33.294 65.504 33.714C65.504 34.2367 65.3967 34.6893 65.182 35.072C64.9767 35.4453 64.7107 35.7533 64.384 35.996C64.0573 36.2387 63.6887 36.4207 63.278 36.542C62.8673 36.6633 62.466 36.724 62.074 36.724ZM67.8587 28.646C67.7001 28.646 67.5461 28.618 67.3967 28.562C67.2567 28.4967 67.1307 28.4127 67.0187 28.31C66.9161 28.198 66.8321 28.072 66.7667 27.932C66.7107 27.792 66.6827 27.638 66.6827 27.47C66.6827 27.302 66.7107 27.148 66.7667 27.008C66.8321 26.868 66.9161 26.7467 67.0187 26.644C67.1307 26.532 67.2567 26.448 67.3967 26.392C67.5461 26.3267 67.7001 26.294 67.8587 26.294C68.1854 26.294 68.4654 26.4107 68.6987 26.644C68.9321 26.868 69.0487 27.1433 69.0487 27.47C69.0487 27.7967 68.9321 28.0767 68.6987 28.31C68.4654 28.534 68.1854 28.646 67.8587 28.646ZM66.9487 36.5V29.64H68.7827V36.5H66.9487ZM73.5554 39.748C73.0701 39.748 72.6361 39.6827 72.2534 39.552C71.8801 39.4307 71.5534 39.2673 71.2734 39.062C70.9934 38.866 70.7601 38.6467 70.5734 38.404C70.3868 38.1613 70.2514 37.9187 70.1674 37.676L71.9174 36.976C72.0481 37.34 72.2628 37.62 72.5614 37.816C72.8601 38.0213 73.1914 38.124 73.5554 38.124C74.1341 38.124 74.5914 37.942 74.9274 37.578C75.2634 37.2233 75.4314 36.724 75.4314 36.08V35.604H75.3194C75.1048 35.9027 74.8201 36.1407 74.4654 36.318C74.1201 36.486 73.7094 36.57 73.2334 36.57C72.8228 36.57 72.4214 36.486 72.0294 36.318C71.6468 36.15 71.3061 35.912 71.0074 35.604C70.7088 35.2867 70.4661 34.9087 70.2794 34.47C70.0928 34.0313 69.9994 33.5413 69.9994 33C69.9994 32.4587 70.0928 31.9687 70.2794 31.53C70.4661 31.082 70.7088 30.704 71.0074 30.396C71.3061 30.0787 71.6468 29.836 72.0294 29.668C72.4214 29.5 72.8228 29.416 73.2334 29.416C73.7094 29.416 74.1201 29.5047 74.4654 29.682C74.8201 29.85 75.1048 30.0833 75.3194 30.382H75.4314V29.64H77.1814V36.01C77.1814 36.5887 77.0928 37.1067 76.9154 37.564C76.7381 38.0307 76.4908 38.4227 76.1734 38.74C75.8561 39.0667 75.4734 39.314 75.0254 39.482C74.5868 39.6593 74.0968 39.748 73.5554 39.748ZM73.6254 34.918C73.8494 34.918 74.0688 34.876 74.2834 34.792C74.5074 34.708 74.7034 34.5867 74.8714 34.428C75.0394 34.26 75.1748 34.0593 75.2774 33.826C75.3801 33.5833 75.4314 33.308 75.4314 33C75.4314 32.692 75.3801 32.4167 75.2774 32.174C75.1748 31.9313 75.0394 31.7307 74.8714 31.572C74.7034 31.404 74.5074 31.278 74.2834 31.194C74.0688 31.11 73.8494 31.068 73.6254 31.068C73.4014 31.068 73.1821 31.11 72.9674 31.194C72.7528 31.278 72.5614 31.404 72.3934 31.572C72.2254 31.74 72.0901 31.9453 71.9874 32.188C71.8848 32.4213 71.8334 32.692 71.8334 33C71.8334 33.308 71.8848 33.5833 71.9874 33.826C72.0901 34.0593 72.2254 34.26 72.3934 34.428C72.5614 34.5867 72.7528 34.708 72.9674 34.792C73.1821 34.876 73.4014 34.918 73.6254 34.918ZM80.4669 30.536H80.5789C80.7936 30.1907 81.0829 29.92 81.4469 29.724C81.8109 29.5187 82.2263 29.416 82.6929 29.416C83.1223 29.416 83.5003 29.486 83.8269 29.626C84.1536 29.766 84.4196 29.9667 84.6249 30.228C84.8396 30.48 84.9983 30.788 85.1009 31.152C85.2129 31.5067 85.2689 31.9033 85.2689 32.342V36.5H83.4349V32.566C83.4349 32.0713 83.3229 31.7073 83.0989 31.474C82.8843 31.2313 82.5669 31.11 82.1469 31.11C81.8949 31.11 81.6709 31.166 81.4749 31.278C81.2883 31.3807 81.1249 31.5253 80.9849 31.712C80.8543 31.8893 80.7516 32.104 80.6769 32.356C80.6116 32.5987 80.5789 32.86 80.5789 33.14V36.5H78.7449V29.64H80.4669V30.536ZM90.0842 26.476H91.9742V36.5H90.0842V26.476ZM95.4923 30.536H95.6043C95.819 30.1907 96.1083 29.92 96.4723 29.724C96.8363 29.5187 97.2517 29.416 97.7183 29.416C98.1477 29.416 98.5257 29.486 98.8523 29.626C99.179 29.766 99.445 29.9667 99.6503 30.228C99.865 30.48 100.024 30.788 100.126 31.152C100.238 31.5067 100.294 31.9033 100.294 32.342V36.5H98.4603V32.566C98.4603 32.0713 98.3483 31.7073 98.1243 31.474C97.9097 31.2313 97.5923 31.11 97.1723 31.11C96.9203 31.11 96.6963 31.166 96.5003 31.278C96.3137 31.3807 96.1503 31.5253 96.0103 31.712C95.8797 31.8893 95.777 32.104 95.7023 32.356C95.637 32.5987 95.6043 32.86 95.6043 33.14V36.5H93.7703V29.64H95.4923V30.536Z" fill="white"/>
<defs>
<linearGradient id="paint0_linear" x1="80" y1="0" x2="80" y2="64" gradientUnits="userSpaceOnUse">
<stop stop-color="#575274"/>
<stop offset="1" stop-color="#312D46"/>
</linearGradient>
</defs>
</svg>
