<svg width="50" height="9" viewBox="0 0 50 9" fill="none" xmlns="http://www.w3.org/2000/svg">
<path d="M1.968 5.18626V8.66626H0.864V0.0742595H3.792C4.536 0.0742595 5.168 0.322259 5.688 0.818259C6.216 1.31426 6.48 1.91826 6.48 2.63026C6.48 3.35826 6.216 3.96626 5.688 4.45426C5.176 4.94226 4.544 5.18626 3.792 5.18626H1.968ZM1.968 1.13026V4.13026H3.816C4.256 4.13026 4.62 3.98226 4.908 3.68626C5.204 3.39026 5.352 3.03826 5.352 2.63026C5.352 2.23026 5.204 1.88226 4.908 1.58626C4.62 1.28226 4.256 1.13026 3.816 1.13026H1.968ZM8.01506 6.86626C8.01506 7.15426 8.13506 7.39426 8.37506 7.58626C8.62306 7.77826 8.91106 7.87426 9.23906 7.87426C9.70306 7.87426 10.1151 7.70226 10.4751 7.35826C10.8431 7.01426 11.0271 6.61026 11.0271 6.14626C10.6831 5.87426 10.2031 5.73826 9.58706 5.73826C9.13906 5.73826 8.76306 5.84626 8.45906 6.06226C8.16306 6.27826 8.01506 6.54626 8.01506 6.86626ZM9.44306 2.59426C10.2591 2.59426 10.9031 2.81426 11.3751 3.25426C11.8471 3.68626 12.0831 4.28226 12.0831 5.04226V8.66626H11.0271V7.85026H10.9791C10.5231 8.52226 9.91506 8.85826 9.15506 8.85826C8.50706 8.85826 7.96306 8.66626 7.52306 8.28226C7.09106 7.89826 6.87506 7.41826 6.87506 6.84226C6.87506 6.23426 7.10306 5.75026 7.55906 5.39026C8.02306 5.03026 8.63906 4.85026 9.40706 4.85026C10.0631 4.85026 10.6031 4.97026 11.0271 5.21026V4.95826C11.0271 4.57426 10.8751 4.25026 10.5711 3.98626C10.2671 3.71426 9.91106 3.57826 9.50306 3.57826C8.88706 3.57826 8.39906 3.83826 8.03906 4.35826L7.06706 3.74626C7.60306 2.97826 8.39506 2.59426 9.44306 2.59426ZM17.7697 7.03426C17.7697 7.54626 17.5457 7.97826 17.0977 8.33026C16.6497 8.68226 16.0857 8.85826 15.4057 8.85826C14.8137 8.85826 14.2937 8.70626 13.8457 8.40226C13.3977 8.09026 13.0777 7.68226 12.8857 7.17826L13.8697 6.75826C14.0137 7.11026 14.2217 7.38626 14.4937 7.58626C14.7737 7.77826 15.0777 7.87426 15.4057 7.87426C15.7577 7.87426 16.0497 7.79826 16.2817 7.64626C16.5217 7.49426 16.6417 7.31426 16.6417 7.10626C16.6417 6.73026 16.3537 6.45426 15.7777 6.27826L14.7697 6.02626C13.6257 5.73826 13.0537 5.18626 13.0537 4.37026C13.0537 3.83426 13.2697 3.40626 13.7017 3.08626C14.1417 2.75826 14.7017 2.59426 15.3817 2.59426C15.9017 2.59426 16.3697 2.71826 16.7857 2.96626C17.2097 3.21426 17.5057 3.54626 17.6737 3.96226L16.6897 4.37026C16.5777 4.12226 16.3937 3.93026 16.1377 3.79426C15.8897 3.65026 15.6097 3.57826 15.2977 3.57826C15.0097 3.57826 14.7497 3.65026 14.5177 3.79426C14.2937 3.93826 14.1817 4.11426 14.1817 4.32226C14.1817 4.65826 14.4977 4.89826 15.1297 5.04226L16.0177 5.27026C17.1857 5.55826 17.7697 6.14626 17.7697 7.03426ZM23.2306 7.03426C23.2306 7.54626 23.0066 7.97826 22.5586 8.33026C22.1106 8.68226 21.5466 8.85826 20.8666 8.85826C20.2746 8.85826 19.7546 8.70626 19.3066 8.40226C18.8586 8.09026 18.5386 7.68226 18.3466 7.17826L19.3306 6.75826C19.4746 7.11026 19.6826 7.38626 19.9546 7.58626C20.2346 7.77826 20.5386 7.87426 20.8666 7.87426C21.2186 7.87426 21.5106 7.79826 21.7426 7.64626C21.9826 7.49426 22.1026 7.31426 22.1026 7.10626C22.1026 6.73026 21.8146 6.45426 21.2386 6.27826L20.2306 6.02626C19.0866 5.73826 18.5146 5.18626 18.5146 4.37026C18.5146 3.83426 18.7306 3.40626 19.1626 3.08626C19.6026 2.75826 20.1626 2.59426 20.8426 2.59426C21.3626 2.59426 21.8306 2.71826 22.2466 2.96626C22.6706 3.21426 22.9666 3.54626 23.1346 3.96226L22.1506 4.37026C22.0386 4.12226 21.8546 3.93026 21.5986 3.79426C21.3506 3.65026 21.0706 3.57826 20.7586 3.57826C20.4706 3.57826 20.2106 3.65026 19.9786 3.79426C19.7546 3.93826 19.6426 4.11426 19.6426 4.32226C19.6426 4.65826 19.9586 4.89826 20.5906 5.04226L21.4786 5.27026C22.6466 5.55826 23.2306 6.14626 23.2306 7.03426ZM32.5195 2.78626L30.6235 8.66626H29.4955L28.0315 4.15426L26.5795 8.66626H25.4635L23.5675 2.78626H24.7195L26.0275 7.22626H26.0395L27.4915 2.78626H28.6315L30.0835 7.22626H30.0955L31.3915 2.78626H32.5195ZM32.7852 5.72626C32.7852 4.82226 33.0692 4.07426 33.6372 3.48226C34.2132 2.89026 34.9372 2.59426 35.8092 2.59426C36.6812 2.59426 37.4012 2.89026 37.9692 3.48226C38.5452 4.07426 38.8332 4.82226 38.8332 5.72626C38.8332 6.63826 38.5452 7.38626 37.9692 7.97026C37.4012 8.56226 36.6812 8.85826 35.8092 8.85826C34.9372 8.85826 34.2132 8.56226 33.6372 7.97026C33.0692 7.37826 32.7852 6.63026 32.7852 5.72626ZM33.8892 5.72626C33.8892 6.35826 34.0732 6.87026 34.4412 7.26226C34.8092 7.65426 35.2652 7.85026 35.8092 7.85026C36.3532 7.85026 36.8092 7.65426 37.1772 7.26226C37.5452 6.87026 37.7292 6.35826 37.7292 5.72626C37.7292 5.10226 37.5452 4.59426 37.1772 4.20226C36.8012 3.80226 36.3452 3.60226 35.8092 3.60226C35.2732 3.60226 34.8172 3.80226 34.4412 4.20226C34.0732 4.59426 33.8892 5.10226 33.8892 5.72626ZM40.8229 8.66626H39.7189V2.78626H40.7749V3.74626H40.8229C40.9349 3.43426 41.1629 3.17026 41.5069 2.95426C41.8589 2.73026 42.2029 2.61826 42.5389 2.61826C42.8589 2.61826 43.1309 2.66626 43.3549 2.76226L43.0189 3.83026C42.8829 3.77426 42.6669 3.74626 42.3709 3.74626C41.9549 3.74626 41.5909 3.91426 41.2789 4.25026C40.9749 4.58626 40.8229 4.97826 40.8229 5.42626V8.66626ZM46.355 7.85026C46.899 7.85026 47.343 7.65426 47.687 7.26226C48.047 6.87026 48.227 6.35826 48.227 5.72626C48.227 5.11026 48.047 4.60226 47.687 4.20226C47.335 3.80226 46.891 3.60226 46.355 3.60226C45.827 3.60226 45.383 3.80226 45.023 4.20226C44.663 4.60226 44.483 5.11026 44.483 5.72626C44.483 6.35026 44.663 6.85826 45.023 7.25026C45.383 7.65026 45.827 7.85026 46.355 7.85026ZM46.175 8.85826C45.407 8.85826 44.747 8.55426 44.195 7.94626C43.651 7.33026 43.379 6.59026 43.379 5.72626C43.379 4.86226 43.651 4.12226 44.195 3.50626C44.747 2.89826 45.407 2.59426 46.175 2.59426C46.607 2.59426 46.999 2.68626 47.351 2.87026C47.711 3.05426 47.987 3.29826 48.179 3.60226H48.227L48.179 2.78626V0.0742595H49.283V8.66626H48.227V7.85026H48.179C47.987 8.15426 47.711 8.39826 47.351 8.58226C46.999 8.76626 46.607 8.85826 46.175 8.85826Z" fill="url(#paint0_linear)"/>
<defs>
<linearGradient id="paint0_linear" x1="58" y1="-3.33374" x2="58" y2="11.7586" gradientUnits="userSpaceOnUse">
<stop stop-color="#575274"/>
<stop offset="1" stop-color="#312D46"/>
</linearGradient>
</defs>
</svg>
