<svg width="245" height="154" viewBox="0 0 245 154" fill="none" xmlns="http://www.w3.org/2000/svg">
<g opacity="0.4" filter="url(#filter0_f)">
<rect x="40" y="45" width="160" height="64" rx="16" fill="url(#paint0_linear)"/>
<path d="M102.074 81.724C101.645 81.724 101.234 81.6633 100.842 81.542C100.45 81.4207 100.091 81.2387 99.764 80.996C99.4373 80.7533 99.1527 80.4593 98.91 80.114C98.6673 79.7593 98.476 79.3487 98.336 78.882L100.114 78.182C100.245 78.686 100.473 79.106 100.8 79.442C101.127 79.7687 101.556 79.932 102.088 79.932C102.284 79.932 102.471 79.9087 102.648 79.862C102.835 79.806 102.998 79.7313 103.138 79.638C103.287 79.5353 103.404 79.4093 103.488 79.26C103.572 79.1107 103.614 78.938 103.614 78.742C103.614 78.5553 103.581 78.3873 103.516 78.238C103.451 78.0887 103.339 77.9487 103.18 77.818C103.031 77.6873 102.83 77.5613 102.578 77.44C102.335 77.3187 102.032 77.1927 101.668 77.062L101.052 76.838C100.781 76.7447 100.506 76.6187 100.226 76.46C99.9553 76.3013 99.708 76.11 99.484 75.886C99.26 75.662 99.0733 75.4007 98.924 75.102C98.784 74.794 98.714 74.4487 98.714 74.066C98.714 73.674 98.7887 73.31 98.938 72.974C99.0967 72.6287 99.316 72.33 99.596 72.078C99.8853 71.8167 100.226 71.616 100.618 71.476C101.019 71.3267 101.463 71.252 101.948 71.252C102.452 71.252 102.886 71.322 103.25 71.462C103.623 71.5927 103.936 71.7653 104.188 71.98C104.449 72.1853 104.659 72.414 104.818 72.666C104.977 72.918 105.093 73.156 105.168 73.38L103.502 74.08C103.409 73.8 103.236 73.548 102.984 73.324C102.741 73.1 102.405 72.988 101.976 72.988C101.565 72.988 101.225 73.086 100.954 73.282C100.683 73.4687 100.548 73.716 100.548 74.024C100.548 74.3227 100.679 74.5793 100.94 74.794C101.201 74.9993 101.617 75.2 102.186 75.396L102.816 75.606C103.217 75.746 103.581 75.9093 103.908 76.096C104.244 76.2733 104.529 76.488 104.762 76.74C105.005 76.992 105.187 77.2813 105.308 77.608C105.439 77.9253 105.504 78.294 105.504 78.714C105.504 79.2367 105.397 79.6893 105.182 80.072C104.977 80.4453 104.711 80.7533 104.384 80.996C104.057 81.2387 103.689 81.4207 103.278 81.542C102.867 81.6633 102.466 81.724 102.074 81.724ZM107.859 73.646C107.7 73.646 107.546 73.618 107.397 73.562C107.257 73.4967 107.131 73.4127 107.019 73.31C106.916 73.198 106.832 73.072 106.767 72.932C106.711 72.792 106.683 72.638 106.683 72.47C106.683 72.302 106.711 72.148 106.767 72.008C106.832 71.868 106.916 71.7467 107.019 71.644C107.131 71.532 107.257 71.448 107.397 71.392C107.546 71.3267 107.7 71.294 107.859 71.294C108.185 71.294 108.465 71.4107 108.699 71.644C108.932 71.868 109.049 72.1433 109.049 72.47C109.049 72.7967 108.932 73.0767 108.699 73.31C108.465 73.534 108.185 73.646 107.859 73.646ZM106.949 81.5V74.64H108.783V81.5H106.949ZM113.555 84.748C113.07 84.748 112.636 84.6827 112.253 84.552C111.88 84.4307 111.553 84.2673 111.273 84.062C110.993 83.866 110.76 83.6467 110.573 83.404C110.387 83.1613 110.251 82.9187 110.167 82.676L111.917 81.976C112.048 82.34 112.263 82.62 112.561 82.816C112.86 83.0213 113.191 83.124 113.555 83.124C114.134 83.124 114.591 82.942 114.927 82.578C115.263 82.2233 115.431 81.724 115.431 81.08V80.604H115.319C115.105 80.9027 114.82 81.1407 114.465 81.318C114.12 81.486 113.709 81.57 113.233 81.57C112.823 81.57 112.421 81.486 112.029 81.318C111.647 81.15 111.306 80.912 111.007 80.604C110.709 80.2867 110.466 79.9087 110.279 79.47C110.093 79.0313 109.999 78.5413 109.999 78C109.999 77.4587 110.093 76.9687 110.279 76.53C110.466 76.082 110.709 75.704 111.007 75.396C111.306 75.0787 111.647 74.836 112.029 74.668C112.421 74.5 112.823 74.416 113.233 74.416C113.709 74.416 114.12 74.5047 114.465 74.682C114.82 74.85 115.105 75.0833 115.319 75.382H115.431V74.64H117.181V81.01C117.181 81.5887 117.093 82.1067 116.915 82.564C116.738 83.0307 116.491 83.4227 116.173 83.74C115.856 84.0667 115.473 84.314 115.025 84.482C114.587 84.6593 114.097 84.748 113.555 84.748ZM113.625 79.918C113.849 79.918 114.069 79.876 114.283 79.792C114.507 79.708 114.703 79.5867 114.871 79.428C115.039 79.26 115.175 79.0593 115.277 78.826C115.38 78.5833 115.431 78.308 115.431 78C115.431 77.692 115.38 77.4167 115.277 77.174C115.175 76.9313 115.039 76.7307 114.871 76.572C114.703 76.404 114.507 76.278 114.283 76.194C114.069 76.11 113.849 76.068 113.625 76.068C113.401 76.068 113.182 76.11 112.967 76.194C112.753 76.278 112.561 76.404 112.393 76.572C112.225 76.74 112.09 76.9453 111.987 77.188C111.885 77.4213 111.833 77.692 111.833 78C111.833 78.308 111.885 78.5833 111.987 78.826C112.09 79.0593 112.225 79.26 112.393 79.428C112.561 79.5867 112.753 79.708 112.967 79.792C113.182 79.876 113.401 79.918 113.625 79.918ZM120.467 75.536H120.579C120.794 75.1907 121.083 74.92 121.447 74.724C121.811 74.5187 122.226 74.416 122.693 74.416C123.122 74.416 123.5 74.486 123.827 74.626C124.154 74.766 124.42 74.9667 124.625 75.228C124.84 75.48 124.998 75.788 125.101 76.152C125.213 76.5067 125.269 76.9033 125.269 77.342V81.5H123.435V77.566C123.435 77.0713 123.323 76.7073 123.099 76.474C122.884 76.2313 122.567 76.11 122.147 76.11C121.895 76.11 121.671 76.166 121.475 76.278C121.288 76.3807 121.125 76.5253 120.985 76.712C120.854 76.8893 120.752 77.104 120.677 77.356C120.612 77.5987 120.579 77.86 120.579 78.14V81.5H118.745V74.64H120.467V75.536ZM130.084 71.476H131.974V81.5H130.084V71.476ZM135.492 75.536H135.604C135.819 75.1907 136.108 74.92 136.472 74.724C136.836 74.5187 137.252 74.416 137.718 74.416C138.148 74.416 138.526 74.486 138.852 74.626C139.179 74.766 139.445 74.9667 139.65 75.228C139.865 75.48 140.024 75.788 140.126 76.152C140.238 76.5067 140.294 76.9033 140.294 77.342V81.5H138.46V77.566C138.46 77.0713 138.348 76.7073 138.124 76.474C137.91 76.2313 137.592 76.11 137.172 76.11C136.92 76.11 136.696 76.166 136.5 76.278C136.314 76.3807 136.15 76.5253 136.01 76.712C135.88 76.8893 135.777 77.104 135.702 77.356C135.637 77.5987 135.604 77.86 135.604 78.14V81.5H133.77V74.64H135.492V75.536Z" fill="white"/>
</g>
<defs>
<filter id="filter0_f" x="-5" y="0" width="250" height="154" filterUnits="userSpaceOnUse" color-interpolation-filters="sRGB">
<feFlood flood-opacity="0" result="BackgroundImageFix"/>
<feBlend mode="normal" in="SourceGraphic" in2="BackgroundImageFix" result="shape"/>
<feGaussianBlur stdDeviation="22.5" result="effect1_foregroundBlur"/>
</filter>
<linearGradient id="paint0_linear" x1="120" y1="45" x2="120" y2="109" gradientUnits="userSpaceOnUse">
<stop stop-color="#575274"/>
<stop offset="1" stop-color="#312D46"/>
</linearGradient>
</defs>
</svg>
