<svg width="191" height="17" viewBox="0 0 191 17" fill="none" xmlns="http://www.w3.org/2000/svg">
<path d="M0.832 4.50607H2.8V5.45007H2.928C3.12 5.1194 3.41867 4.83674 3.824 4.60207C4.22933 4.3674 4.73067 4.25007 5.328 4.25007C5.82933 4.25007 6.304 4.35674 6.752 4.57007C7.21067 4.77274 7.61067 5.06074 7.952 5.43407C8.304 5.79674 8.58133 6.23407 8.784 6.74607C8.98667 7.25807 9.088 7.81807 9.088 8.42607C9.088 9.03407 8.98667 9.59407 8.784 10.1061C8.58133 10.6181 8.304 11.0607 7.952 11.4341C7.61067 11.7967 7.21067 12.0847 6.752 12.2981C6.304 12.5007 5.82933 12.6021 5.328 12.6021C4.73067 12.6021 4.22933 12.4847 3.824 12.2501C3.41867 12.0154 3.12 11.7327 2.928 11.4021H2.8L2.928 12.5221V15.8021H0.832V4.50607ZM4.896 10.6661C5.17333 10.6661 5.43467 10.6127 5.68 10.5061C5.936 10.3994 6.16 10.2501 6.352 10.0581C6.544 9.86607 6.69867 9.6314 6.816 9.35407C6.93333 9.07674 6.992 8.7674 6.992 8.42607C6.992 8.08474 6.93333 7.7754 6.816 7.49807C6.69867 7.22074 6.544 6.98607 6.352 6.79407C6.16 6.60207 5.936 6.45274 5.68 6.34607C5.43467 6.2394 5.17333 6.18607 4.896 6.18607C4.61867 6.18607 4.352 6.2394 4.096 6.34607C3.85067 6.44207 3.632 6.58607 3.44 6.77807C3.248 6.97007 3.09333 7.20474 2.976 7.48207C2.85867 7.7594 2.8 8.07407 2.8 8.42607C2.8 8.77807 2.85867 9.09274 2.976 9.37007C3.09333 9.6474 3.248 9.88207 3.44 10.0741C3.632 10.2661 3.85067 10.4154 4.096 10.5221C4.352 10.6181 4.61867 10.6661 4.896 10.6661ZM10.3491 4.50607H12.3171V5.59407H12.4451C12.5411 5.40207 12.6691 5.22607 12.8291 5.06607C12.9891 4.90607 13.1651 4.7674 13.3571 4.65007C13.5598 4.53274 13.7731 4.44207 13.9971 4.37807C14.2318 4.31407 14.4611 4.28207 14.6851 4.28207C14.9625 4.28207 15.1971 4.30874 15.3891 4.36207C15.5918 4.4154 15.7625 4.48474 15.9011 4.57007L15.3411 6.47407C15.2131 6.41007 15.0691 6.36207 14.9091 6.33007C14.7598 6.2874 14.5731 6.26607 14.3491 6.26607C14.0611 6.26607 13.7998 6.32474 13.5651 6.44207C13.3305 6.54874 13.1278 6.7034 12.9571 6.90607C12.7971 7.10874 12.6691 7.34874 12.5731 7.62607C12.4878 7.89274 12.4451 8.18607 12.4451 8.50607V12.3461H10.3491V4.50607ZM23.8044 10.4581C23.4417 11.0981 22.951 11.6154 22.3324 12.0101C21.7244 12.4047 20.9777 12.6021 20.0924 12.6021C19.495 12.6021 18.9404 12.5007 18.4284 12.2981C17.927 12.0847 17.4897 11.7914 17.1164 11.4181C16.743 11.0447 16.4497 10.6074 16.2364 10.1061C16.0337 9.59407 15.9324 9.03407 15.9324 8.42607C15.9324 7.86074 16.0337 7.3274 16.2364 6.82607C16.439 6.31407 16.7217 5.8714 17.0844 5.49807C17.447 5.11407 17.8737 4.81007 18.3644 4.58607C18.8657 4.36207 19.415 4.25007 20.0124 4.25007C20.6417 4.25007 21.2017 4.35674 21.6924 4.57007C22.183 4.77274 22.5937 5.06074 22.9244 5.43407C23.255 5.79674 23.5057 6.22874 23.6764 6.73007C23.847 7.2314 23.9324 7.7754 23.9324 8.36207C23.9324 8.43674 23.9324 8.50074 23.9324 8.55407C23.9217 8.61807 23.9164 8.67674 23.9164 8.73007C23.9057 8.7834 23.9004 8.84207 23.9004 8.90607H17.9964C18.039 9.22607 18.1244 9.5034 18.2524 9.73807C18.391 9.96207 18.5564 10.1541 18.7484 10.3141C18.951 10.4634 19.1697 10.5754 19.4044 10.6501C19.639 10.7141 19.879 10.7461 20.1244 10.7461C20.6044 10.7461 20.999 10.6394 21.3084 10.4261C21.6284 10.2021 21.879 9.92474 22.0604 9.59407L23.8044 10.4581ZM21.9004 7.41807C21.8897 7.2794 21.8417 7.12474 21.7564 6.95407C21.6817 6.7834 21.5644 6.6234 21.4044 6.47407C21.255 6.32474 21.063 6.20207 20.8284 6.10607C20.6044 6.01007 20.3324 5.96207 20.0124 5.96207C19.5644 5.96207 19.1697 6.09007 18.8284 6.34607C18.487 6.60207 18.247 6.9594 18.1084 7.41807H21.9004ZM25.271 12.3461V0.890069H27.367V12.3461H25.271ZM32.7955 4.25007C33.4035 4.25007 33.9582 4.35674 34.4595 4.57007C34.9715 4.77274 35.4088 5.06074 35.7715 5.43407C36.1448 5.79674 36.4328 6.23407 36.6355 6.74607C36.8488 7.25807 36.9555 7.81807 36.9555 8.42607C36.9555 9.03407 36.8488 9.59407 36.6355 10.1061C36.4328 10.6181 36.1448 11.0607 35.7715 11.4341C35.4088 11.7967 34.9715 12.0847 34.4595 12.2981C33.9582 12.5007 33.4035 12.6021 32.7955 12.6021C32.1875 12.6021 31.6275 12.5007 31.1155 12.2981C30.6142 12.0847 30.1768 11.7967 29.8035 11.4341C29.4408 11.0607 29.1528 10.6181 28.9395 10.1061C28.7368 9.59407 28.6355 9.03407 28.6355 8.42607C28.6355 7.81807 28.7368 7.25807 28.9395 6.74607C29.1528 6.23407 29.4408 5.79674 29.8035 5.43407C30.1768 5.06074 30.6142 4.77274 31.1155 4.57007C31.6275 4.35674 32.1875 4.25007 32.7955 4.25007ZM32.7955 10.6661C33.0622 10.6661 33.3182 10.6181 33.5635 10.5221C33.8195 10.4154 34.0435 10.2661 34.2355 10.0741C34.4275 9.88207 34.5768 9.6474 34.6835 9.37007C34.8008 9.09274 34.8595 8.77807 34.8595 8.42607C34.8595 8.07407 34.8008 7.7594 34.6835 7.48207C34.5768 7.20474 34.4275 6.97007 34.2355 6.77807C34.0435 6.58607 33.8195 6.44207 33.5635 6.34607C33.3182 6.2394 33.0622 6.18607 32.7955 6.18607C32.5182 6.18607 32.2568 6.2394 32.0115 6.34607C31.7662 6.44207 31.5475 6.58607 31.3555 6.77807C31.1635 6.97007 31.0088 7.20474 30.8915 7.48207C30.7848 7.7594 30.7315 8.07407 30.7315 8.42607C30.7315 8.77807 30.7848 9.09274 30.8915 9.37007C31.0088 9.6474 31.1635 9.88207 31.3555 10.0741C31.5475 10.2661 31.7662 10.4154 32.0115 10.5221C32.2568 10.6181 32.5182 10.6661 32.7955 10.6661ZM42.0143 4.25007C42.6223 4.25007 43.1769 4.35674 43.6783 4.57007C44.1903 4.77274 44.6276 5.06074 44.9903 5.43407C45.3636 5.79674 45.6516 6.23407 45.8542 6.74607C46.0676 7.25807 46.1743 7.81807 46.1743 8.42607C46.1743 9.03407 46.0676 9.59407 45.8542 10.1061C45.6516 10.6181 45.3636 11.0607 44.9903 11.4341C44.6276 11.7967 44.1903 12.0847 43.6783 12.2981C43.1769 12.5007 42.6223 12.6021 42.0143 12.6021C41.4063 12.6021 40.8463 12.5007 40.3343 12.2981C39.8329 12.0847 39.3956 11.7967 39.0223 11.4341C38.6596 11.0607 38.3716 10.6181 38.1583 10.1061C37.9556 9.59407 37.8543 9.03407 37.8543 8.42607C37.8543 7.81807 37.9556 7.25807 38.1583 6.74607C38.3716 6.23407 38.6596 5.79674 39.0223 5.43407C39.3956 5.06074 39.8329 4.77274 40.3343 4.57007C40.8463 4.35674 41.4063 4.25007 42.0143 4.25007ZM42.0143 10.6661C42.2809 10.6661 42.5369 10.6181 42.7823 10.5221C43.0383 10.4154 43.2623 10.2661 43.4543 10.0741C43.6463 9.88207 43.7956 9.6474 43.9023 9.37007C44.0196 9.09274 44.0783 8.77807 44.0783 8.42607C44.0783 8.07407 44.0196 7.7594 43.9023 7.48207C43.7956 7.20474 43.6463 6.97007 43.4543 6.77807C43.2623 6.58607 43.0383 6.44207 42.7823 6.34607C42.5369 6.2394 42.2809 6.18607 42.0143 6.18607C41.7369 6.18607 41.4756 6.2394 41.2303 6.34607C40.9849 6.44207 40.7663 6.58607 40.5743 6.77807C40.3823 6.97007 40.2276 7.20474 40.1103 7.48207C40.0036 7.7594 39.9503 8.07407 39.9503 8.42607C39.9503 8.77807 40.0036 9.09274 40.1103 9.37007C40.2276 9.6474 40.3823 9.88207 40.5743 10.0741C40.7663 10.2661 40.9849 10.4154 41.2303 10.5221C41.4756 10.6181 41.7369 10.6661 42.0143 10.6661ZM47.4429 0.890069H49.5389V7.13007H49.6349L52.2589 4.50607H54.8509V4.63407L51.9389 7.46607L55.0909 12.2181V12.3461H52.6109L50.4669 8.90607L49.5389 9.81807V12.3461H47.4429V0.890069ZM58.875 12.6021C58.363 12.6021 57.9043 12.5381 57.499 12.4101C57.1043 12.2821 56.7577 12.1167 56.459 11.9141C56.171 11.7007 55.9257 11.4607 55.723 11.1941C55.5203 10.9167 55.3657 10.6394 55.259 10.3621L57.131 9.56207C57.3123 9.9674 57.5523 10.2714 57.851 10.4741C58.1603 10.6661 58.5017 10.7621 58.875 10.7621C59.259 10.7621 59.563 10.6927 59.787 10.5541C60.011 10.4154 60.123 10.2501 60.123 10.0581C60.123 9.84474 60.027 9.67407 59.835 9.54607C59.6537 9.4074 59.3337 9.28474 58.875 9.17807L57.771 8.93807C57.5257 8.88474 57.2697 8.7994 57.003 8.68207C56.747 8.56474 56.5123 8.4154 56.299 8.23407C56.0857 8.05274 55.9097 7.83407 55.771 7.57807C55.6323 7.32207 55.563 7.0234 55.563 6.68207C55.563 6.29807 55.643 5.95674 55.803 5.65807C55.9737 5.3594 56.203 5.10874 56.491 4.90607C56.779 4.69274 57.115 4.53274 57.499 4.42607C57.8937 4.30874 58.315 4.25007 58.763 4.25007C59.5097 4.25007 60.1763 4.3994 60.763 4.69807C61.3497 4.98607 61.7817 5.45007 62.059 6.09007L60.251 6.82607C60.1017 6.51674 59.883 6.29274 59.595 6.15407C59.307 6.0154 59.019 5.94607 58.731 5.94607C58.4323 5.94607 58.171 6.01007 57.947 6.13807C57.723 6.2554 57.611 6.41007 57.611 6.60207C57.611 6.7834 57.7017 6.9274 57.883 7.03407C58.075 7.14074 58.331 7.23674 58.651 7.32207L59.851 7.61007C60.651 7.80207 61.243 8.1114 61.627 8.53807C62.0217 8.95407 62.219 9.45007 62.219 10.0261C62.219 10.3674 62.139 10.6927 61.979 11.0021C61.819 11.3114 61.5897 11.5887 61.291 11.8341C61.003 12.0687 60.651 12.2554 60.235 12.3941C59.8297 12.5327 59.3763 12.6021 58.875 12.6021ZM64.2913 6.29807H62.9153V4.50607H64.2913V2.10607H66.3873V4.50607H68.3073V6.29807H66.3873V9.33807C66.3873 9.5194 66.4033 9.69007 66.4353 9.85007C66.4779 9.9994 66.5526 10.1274 66.6593 10.2341C66.8086 10.4047 67.0219 10.4901 67.2993 10.4901C67.4806 10.4901 67.6246 10.4741 67.7313 10.4421C67.8379 10.3994 67.9393 10.3461 68.0353 10.2821L68.6273 12.1221C68.3819 12.2394 68.1153 12.3247 67.8273 12.3781C67.5499 12.4421 67.2406 12.4741 66.8993 12.4741C66.5046 12.4741 66.1473 12.4154 65.8273 12.2981C65.5179 12.1701 65.2566 11.9994 65.0433 11.7861C64.5419 11.3061 64.2913 10.6234 64.2913 9.73807V6.29807ZM75.2731 11.3221H75.1451C74.8998 11.7167 74.5691 12.0314 74.1531 12.2661C73.7371 12.4901 73.2625 12.6021 72.7291 12.6021C71.7371 12.6021 70.9958 12.2981 70.5051 11.6901C70.0251 11.0821 69.7851 10.2714 69.7851 9.25807V4.50607H71.8811V9.00207C71.8811 9.5674 72.0038 9.98874 72.2491 10.2661C72.5051 10.5327 72.8731 10.6661 73.3531 10.6661C73.6411 10.6661 73.8918 10.6074 74.1051 10.4901C74.3291 10.3621 74.5158 10.1967 74.6651 9.99407C74.8251 9.78074 74.9425 9.5354 75.0171 9.25807C75.1025 8.97007 75.1451 8.66607 75.1451 8.34607V4.50607H77.2411V12.3461H75.2731V11.3221ZM84.7985 11.4021H84.6705C84.4785 11.7327 84.1798 12.0154 83.7745 12.2501C83.3692 12.4847 82.8678 12.6021 82.2705 12.6021C81.7692 12.6021 81.2892 12.5007 80.8305 12.2981C80.3825 12.0847 79.9825 11.7967 79.6305 11.4341C79.2892 11.0607 79.0172 10.6181 78.8145 10.1061C78.6118 9.59407 78.5105 9.03407 78.5105 8.42607C78.5105 7.81807 78.6118 7.25807 78.8145 6.74607C79.0172 6.23407 79.2892 5.79674 79.6305 5.43407C79.9825 5.06074 80.3825 4.77274 80.8305 4.57007C81.2892 4.35674 81.7692 4.25007 82.2705 4.25007C82.8678 4.25007 83.3692 4.3674 83.7745 4.60207C84.1798 4.83674 84.4785 5.1194 84.6705 5.45007H84.7985L84.6705 4.33007V0.890069H86.7665V12.3461H84.7985V11.4021ZM82.7025 10.6661C82.9798 10.6661 83.2412 10.6181 83.4865 10.5221C83.7425 10.4154 83.9665 10.2661 84.1585 10.0741C84.3505 9.88207 84.5052 9.6474 84.6225 9.37007C84.7398 9.09274 84.7985 8.77807 84.7985 8.42607C84.7985 8.07407 84.7398 7.7594 84.6225 7.48207C84.5052 7.20474 84.3505 6.97007 84.1585 6.77807C83.9665 6.58607 83.7425 6.44207 83.4865 6.34607C83.2412 6.2394 82.9798 6.18607 82.7025 6.18607C82.4252 6.18607 82.1585 6.2394 81.9025 6.34607C81.6572 6.45274 81.4385 6.60207 81.2465 6.79407C81.0545 6.98607 80.8998 7.22074 80.7825 7.49807C80.6652 7.7754 80.6065 8.08474 80.6065 8.42607C80.6065 8.7674 80.6652 9.07674 80.7825 9.35407C80.8998 9.6314 81.0545 9.86607 81.2465 10.0581C81.4385 10.2501 81.6572 10.3994 81.9025 10.5061C82.1585 10.6127 82.4252 10.6661 82.7025 10.6661ZM89.7203 3.37007C89.5389 3.37007 89.3629 3.33807 89.1923 3.27407C89.0323 3.1994 88.8883 3.1034 88.7603 2.98607C88.6429 2.85807 88.5469 2.71407 88.4723 2.55407C88.4083 2.39407 88.3763 2.21807 88.3763 2.02607C88.3763 1.83407 88.4083 1.65807 88.4723 1.49807C88.5469 1.33807 88.6429 1.1994 88.7603 1.08207C88.8883 0.954069 89.0323 0.858069 89.1923 0.794068C89.3629 0.719402 89.5389 0.682069 89.7203 0.682069C90.0936 0.682069 90.4136 0.815402 90.6803 1.08207C90.9469 1.33807 91.0803 1.65274 91.0803 2.02607C91.0803 2.3994 90.9469 2.7194 90.6803 2.98607C90.4136 3.24207 90.0936 3.37007 89.7203 3.37007ZM88.6803 12.3461V4.50607H90.7763V12.3461H88.6803ZM96.3268 4.25007C96.9348 4.25007 97.4894 4.35674 97.9908 4.57007C98.5028 4.77274 98.9401 5.06074 99.3028 5.43407C99.6761 5.79674 99.9641 6.23407 100.167 6.74607C100.38 7.25807 100.487 7.81807 100.487 8.42607C100.487 9.03407 100.38 9.59407 100.167 10.1061C99.9641 10.6181 99.6761 11.0607 99.3028 11.4341C98.9401 11.7967 98.5028 12.0847 97.9908 12.2981C97.4894 12.5007 96.9348 12.6021 96.3268 12.6021C95.7188 12.6021 95.1588 12.5007 94.6468 12.2981C94.1454 12.0847 93.7081 11.7967 93.3348 11.4341C92.9721 11.0607 92.6841 10.6181 92.4708 10.1061C92.2681 9.59407 92.1668 9.03407 92.1668 8.42607C92.1668 7.81807 92.2681 7.25807 92.4708 6.74607C92.6841 6.23407 92.9721 5.79674 93.3348 5.43407C93.7081 5.06074 94.1454 4.77274 94.6468 4.57007C95.1588 4.35674 95.7188 4.25007 96.3268 4.25007ZM96.3268 10.6661C96.5934 10.6661 96.8494 10.6181 97.0948 10.5221C97.3508 10.4154 97.5748 10.2661 97.7668 10.0741C97.9588 9.88207 98.1081 9.6474 98.2148 9.37007C98.3321 9.09274 98.3908 8.77807 98.3908 8.42607C98.3908 8.07407 98.3321 7.7594 98.2148 7.48207C98.1081 7.20474 97.9588 6.97007 97.7668 6.77807C97.5748 6.58607 97.3508 6.44207 97.0948 6.34607C96.8494 6.2394 96.5934 6.18607 96.3268 6.18607C96.0494 6.18607 95.7881 6.2394 95.5428 6.34607C95.2974 6.44207 95.0788 6.58607 94.8868 6.77807C94.6948 6.97007 94.5401 7.20474 94.4228 7.48207C94.3161 7.7594 94.2628 8.07407 94.2628 8.42607C94.2628 8.77807 94.3161 9.09274 94.4228 9.37007C94.5401 9.6474 94.6948 9.88207 94.8868 10.0741C95.0788 10.2661 95.2974 10.4154 95.5428 10.5221C95.7881 10.6181 96.0494 10.6661 96.3268 10.6661ZM107.978 1.30607C108.906 1.30607 109.754 1.4714 110.522 1.80207C111.3 2.12207 111.967 2.5594 112.522 3.11407C113.076 3.66874 113.503 4.3194 113.802 5.06607C114.111 5.80207 114.266 6.58607 114.266 7.41807C114.266 7.89807 114.207 8.34607 114.09 8.76207C113.972 9.17807 113.802 9.54074 113.578 9.85007C113.364 10.1487 113.098 10.3834 112.778 10.5541C112.458 10.7247 112.1 10.8101 111.706 10.8101C111.3 10.8101 110.922 10.7087 110.57 10.5061C110.228 10.3034 109.972 10.0207 109.802 9.65807C109.322 10.4261 108.591 10.8101 107.61 10.8101C107.172 10.8101 106.767 10.7301 106.394 10.5701C106.02 10.4101 105.69 10.1861 105.402 9.89807C105.124 9.61007 104.906 9.26874 104.746 8.87407C104.586 8.46874 104.506 8.02607 104.506 7.54607C104.506 7.06607 104.586 6.62874 104.746 6.23407C104.916 5.82874 105.14 5.48207 105.418 5.19407C105.695 4.90607 106.015 4.68207 106.378 4.52207C106.751 4.36207 107.14 4.28207 107.546 4.28207C107.951 4.28207 108.298 4.36207 108.586 4.52207C108.874 4.68207 109.103 4.8794 109.274 5.11407H109.402V4.50607H110.97V8.44207C110.97 8.7194 111.039 8.95407 111.178 9.14607C111.316 9.3274 111.508 9.41807 111.754 9.41807C111.924 9.41807 112.074 9.36474 112.202 9.25807C112.33 9.1514 112.436 9.0074 112.522 8.82607C112.607 8.64474 112.666 8.4314 112.698 8.18607C112.74 7.94074 112.762 7.6794 112.762 7.40207C112.762 6.79407 112.644 6.21274 112.41 5.65807C112.175 5.09274 111.844 4.59674 111.418 4.17007C110.991 3.7434 110.484 3.40207 109.898 3.14607C109.322 2.89007 108.682 2.76207 107.978 2.76207C107.316 2.76207 106.698 2.8794 106.122 3.11407C105.546 3.33807 105.044 3.65807 104.618 4.07407C104.191 4.4794 103.855 4.9754 103.61 5.56207C103.364 6.13807 103.242 6.77807 103.242 7.48207C103.242 8.18607 103.37 8.8314 103.626 9.41807C103.892 9.99407 104.239 10.4901 104.666 10.9061C105.103 11.3114 105.604 11.6314 106.17 11.8661C106.746 12.0901 107.348 12.2021 107.978 12.2021C108.383 12.2021 108.762 12.1594 109.114 12.0741C109.476 11.9781 109.807 11.8447 110.106 11.6741L110.65 13.0661C110.266 13.2474 109.844 13.3914 109.385 13.4981C108.927 13.6047 108.458 13.6581 107.978 13.6581C107.05 13.6581 106.196 13.4981 105.418 13.1781C104.639 12.8581 103.967 12.4207 103.402 11.8661C102.847 11.3007 102.415 10.6447 102.106 9.89807C101.796 9.14074 101.642 8.3354 101.642 7.48207C101.642 6.6394 101.796 5.84474 102.106 5.09807C102.415 4.34074 102.847 3.68474 103.402 3.13007C103.967 2.56474 104.639 2.12207 105.418 1.80207C106.196 1.4714 107.05 1.30607 107.978 1.30607ZM107.722 9.25807C107.935 9.25807 108.138 9.22074 108.33 9.14607C108.522 9.0714 108.692 8.9594 108.842 8.81007C108.991 8.66074 109.108 8.48474 109.194 8.28207C109.29 8.06874 109.338 7.8234 109.338 7.54607C109.338 7.2794 109.29 7.0394 109.194 6.82607C109.108 6.61274 108.991 6.4314 108.842 6.28207C108.692 6.13274 108.522 6.02074 108.33 5.94607C108.138 5.8714 107.935 5.83407 107.722 5.83407C107.284 5.83407 106.906 5.9834 106.586 6.28207C106.266 6.58074 106.106 7.00207 106.106 7.54607C106.106 8.09007 106.266 8.5114 106.586 8.81007C106.906 9.10874 107.284 9.25807 107.722 9.25807ZM119.481 16.0581C118.926 16.0581 118.43 15.9834 117.993 15.8341C117.566 15.6954 117.193 15.5087 116.873 15.2741C116.553 15.0501 116.286 14.7994 116.073 14.5221C115.859 14.2447 115.705 13.9674 115.609 13.6901L117.609 12.8901C117.758 13.3061 118.003 13.6261 118.345 13.8501C118.686 14.0847 119.065 14.2021 119.481 14.2021C120.142 14.2021 120.665 13.9941 121.049 13.5781C121.433 13.1727 121.625 12.6021 121.625 11.8661V11.3221H121.497C121.251 11.6634 120.926 11.9354 120.521 12.1381C120.126 12.3301 119.657 12.4261 119.113 12.4261C118.643 12.4261 118.185 12.3301 117.737 12.1381C117.299 11.9461 116.91 11.6741 116.569 11.3221C116.227 10.9594 115.95 10.5274 115.737 10.0261C115.523 9.52474 115.417 8.96474 115.417 8.34607C115.417 7.7274 115.523 7.1674 115.737 6.66607C115.95 6.15407 116.227 5.72207 116.569 5.37007C116.91 5.0074 117.299 4.73007 117.737 4.53807C118.185 4.34607 118.643 4.25007 119.113 4.25007C119.657 4.25007 120.126 4.3514 120.521 4.55407C120.926 4.74607 121.251 5.01274 121.497 5.35407H121.625V4.50607H123.625V11.7861C123.625 12.4474 123.523 13.0394 123.321 13.5621C123.118 14.0954 122.835 14.5434 122.473 14.9061C122.11 15.2794 121.673 15.5621 121.161 15.7541C120.659 15.9567 120.099 16.0581 119.481 16.0581ZM119.561 10.5381C119.817 10.5381 120.067 10.4901 120.313 10.3941C120.569 10.2981 120.793 10.1594 120.985 9.97807C121.177 9.78607 121.331 9.55674 121.449 9.29007C121.566 9.01274 121.625 8.69807 121.625 8.34607C121.625 7.99407 121.566 7.6794 121.449 7.40207C121.331 7.12474 121.177 6.8954 120.985 6.71407C120.793 6.52207 120.569 6.37807 120.313 6.28207C120.067 6.18607 119.817 6.13807 119.561 6.13807C119.305 6.13807 119.054 6.18607 118.809 6.28207C118.563 6.37807 118.345 6.52207 118.153 6.71407C117.961 6.90607 117.806 7.14074 117.689 7.41807C117.571 7.68474 117.513 7.99407 117.513 8.34607C117.513 8.69807 117.571 9.01274 117.689 9.29007C117.806 9.55674 117.961 9.78607 118.153 9.97807C118.345 10.1594 118.563 10.2981 118.809 10.3941C119.054 10.4901 119.305 10.5381 119.561 10.5381ZM125.412 4.50607H127.38V5.53007H127.508C127.753 5.14607 128.084 4.83674 128.5 4.60207C128.926 4.3674 129.396 4.25007 129.908 4.25007C130.505 4.25007 131.006 4.38874 131.412 4.66607C131.817 4.9434 132.105 5.28474 132.276 5.69007C132.521 5.2954 132.868 4.9594 133.316 4.68207C133.764 4.39407 134.308 4.25007 134.948 4.25007C135.428 4.25007 135.844 4.33007 136.196 4.49007C136.548 4.6394 136.836 4.85274 137.06 5.13007C137.294 5.4074 137.47 5.7434 137.588 6.13807C137.705 6.52207 137.764 6.9434 137.764 7.40207V12.3461H135.668V7.78607C135.668 6.7194 135.23 6.18607 134.356 6.18607C134.078 6.18607 133.833 6.25007 133.62 6.37807C133.406 6.4954 133.225 6.66074 133.076 6.87407C132.937 7.07674 132.825 7.32207 132.74 7.61007C132.665 7.89807 132.628 8.2074 132.628 8.53807V12.3461H130.532V7.78607C130.532 6.7194 130.073 6.18607 129.156 6.18607C128.889 6.18607 128.654 6.25007 128.452 6.37807C128.249 6.4954 128.078 6.66074 127.94 6.87407C127.801 7.07674 127.694 7.32207 127.62 7.61007C127.545 7.89807 127.508 8.2074 127.508 8.53807V12.3461H125.412V4.50607ZM144.244 11.5141H144.116C143.87 11.8127 143.572 12.0687 143.22 12.2821C142.878 12.4954 142.436 12.6021 141.892 12.6021C141.486 12.6021 141.102 12.5327 140.74 12.3941C140.388 12.2661 140.078 12.0847 139.812 11.8501C139.545 11.6154 139.337 11.3327 139.188 11.0021C139.038 10.6714 138.964 10.3087 138.964 9.91407C138.964 9.50874 139.044 9.14607 139.204 8.82607C139.364 8.4954 139.588 8.21274 139.876 7.97807C140.164 7.7434 140.5 7.5674 140.884 7.45007C141.278 7.32207 141.705 7.25807 142.164 7.25807C142.676 7.25807 143.097 7.30074 143.428 7.38607C143.758 7.46074 144.03 7.54074 144.244 7.62607V7.38607C144.244 6.97007 144.078 6.62874 143.748 6.36207C143.417 6.08474 143.006 5.94607 142.516 5.94607C141.79 5.94607 141.177 6.25007 140.676 6.85807L139.156 5.81807C139.988 4.77274 141.124 4.25007 142.564 4.25007C143.78 4.25007 144.708 4.53807 145.348 5.11407C145.988 5.6794 146.308 6.52207 146.308 7.64207V12.3461H144.244V11.5141ZM144.244 9.16207C143.998 9.04474 143.742 8.95407 143.476 8.89007C143.22 8.8154 142.937 8.77807 142.628 8.77807C142.126 8.77807 141.737 8.89007 141.46 9.11407C141.193 9.3274 141.06 9.59407 141.06 9.91407C141.06 10.2341 141.188 10.4901 141.444 10.6821C141.71 10.8741 142.014 10.9701 142.356 10.9701C142.633 10.9701 142.889 10.9221 143.124 10.8261C143.358 10.7194 143.556 10.5861 143.716 10.4261C143.886 10.2554 144.014 10.0634 144.1 9.85007C144.196 9.62607 144.244 9.39674 144.244 9.16207ZM149.142 3.37007C148.961 3.37007 148.785 3.33807 148.614 3.27407C148.454 3.1994 148.31 3.1034 148.182 2.98607C148.065 2.85807 147.969 2.71407 147.894 2.55407C147.83 2.39407 147.798 2.21807 147.798 2.02607C147.798 1.83407 147.83 1.65807 147.894 1.49807C147.969 1.33807 148.065 1.1994 148.182 1.08207C148.31 0.954069 148.454 0.858069 148.614 0.794068C148.785 0.719402 148.961 0.682069 149.142 0.682069C149.515 0.682069 149.835 0.815402 150.102 1.08207C150.369 1.33807 150.502 1.65274 150.502 2.02607C150.502 2.3994 150.369 2.7194 150.102 2.98607C149.835 3.24207 149.515 3.37007 149.142 3.37007ZM148.102 12.3461V4.50607H150.198V12.3461H148.102ZM152.115 12.3461V0.890069H154.211V12.3461H152.115ZM157.269 12.4421C156.885 12.4421 156.555 12.3087 156.277 12.0421C156.011 11.7647 155.877 11.4341 155.877 11.0501C155.877 10.6661 156.011 10.3407 156.277 10.0741C156.555 9.8074 156.885 9.67407 157.269 9.67407C157.653 9.67407 157.979 9.8074 158.245 10.0741C158.512 10.3407 158.645 10.6661 158.645 11.0501C158.645 11.4341 158.512 11.7647 158.245 12.0421C157.979 12.3087 157.653 12.4421 157.269 12.4421ZM167.742 10.3461C167.401 11.0074 166.921 11.5514 166.302 11.9781C165.694 12.3941 164.932 12.6021 164.014 12.6021C163.406 12.6021 162.846 12.5007 162.334 12.2981C161.833 12.0847 161.396 11.7914 161.022 11.4181C160.66 11.0447 160.372 10.6074 160.158 10.1061C159.956 9.59407 159.854 9.03407 159.854 8.42607C159.854 7.81807 159.956 7.25807 160.158 6.74607C160.372 6.23407 160.66 5.79674 161.022 5.43407C161.396 5.06074 161.833 4.77274 162.334 4.57007C162.846 4.35674 163.406 4.25007 164.014 4.25007C164.921 4.25007 165.684 4.45807 166.302 4.87407C166.921 5.29007 167.374 5.82874 167.662 6.49007L165.742 7.29007C165.561 6.9274 165.326 6.6554 165.038 6.47407C164.761 6.28207 164.409 6.18607 163.982 6.18607C163.705 6.18607 163.444 6.2394 163.198 6.34607C162.953 6.45274 162.734 6.60207 162.542 6.79407C162.361 6.98607 162.217 7.22074 162.11 7.49807C162.004 7.7754 161.95 8.08474 161.95 8.42607C161.95 8.7674 162.004 9.07674 162.11 9.35407C162.217 9.6314 162.361 9.86607 162.542 10.0581C162.734 10.2501 162.953 10.3994 163.198 10.5061C163.444 10.6127 163.705 10.6661 163.982 10.6661C164.42 10.6661 164.788 10.5701 165.086 10.3781C165.396 10.1754 165.641 9.8874 165.822 9.51407L167.742 10.3461ZM172.655 4.25007C173.263 4.25007 173.818 4.35674 174.319 4.57007C174.831 4.77274 175.268 5.06074 175.631 5.43407C176.004 5.79674 176.292 6.23407 176.495 6.74607C176.708 7.25807 176.815 7.81807 176.815 8.42607C176.815 9.03407 176.708 9.59407 176.495 10.1061C176.292 10.6181 176.004 11.0607 175.631 11.4341C175.268 11.7967 174.831 12.0847 174.319 12.2981C173.818 12.5007 173.263 12.6021 172.655 12.6021C172.047 12.6021 171.487 12.5007 170.975 12.2981C170.474 12.0847 170.036 11.7967 169.663 11.4341C169.3 11.0607 169.012 10.6181 168.799 10.1061C168.596 9.59407 168.495 9.03407 168.495 8.42607C168.495 7.81807 168.596 7.25807 168.799 6.74607C169.012 6.23407 169.3 5.79674 169.663 5.43407C170.036 5.06074 170.474 4.77274 170.975 4.57007C171.487 4.35674 172.047 4.25007 172.655 4.25007ZM172.655 10.6661C172.922 10.6661 173.178 10.6181 173.423 10.5221C173.679 10.4154 173.903 10.2661 174.095 10.0741C174.287 9.88207 174.436 9.6474 174.543 9.37007C174.66 9.09274 174.719 8.77807 174.719 8.42607C174.719 8.07407 174.66 7.7594 174.543 7.48207C174.436 7.20474 174.287 6.97007 174.095 6.77807C173.903 6.58607 173.679 6.44207 173.423 6.34607C173.178 6.2394 172.922 6.18607 172.655 6.18607C172.378 6.18607 172.116 6.2394 171.871 6.34607C171.626 6.44207 171.407 6.58607 171.215 6.77807C171.023 6.97007 170.868 7.20474 170.751 7.48207C170.644 7.7594 170.591 8.07407 170.591 8.42607C170.591 8.77807 170.644 9.09274 170.751 9.37007C170.868 9.6474 171.023 9.88207 171.215 10.0741C171.407 10.2661 171.626 10.4154 171.871 10.5221C172.116 10.6181 172.378 10.6661 172.655 10.6661ZM178.005 4.50607H179.973V5.53007H180.101C180.347 5.14607 180.677 4.83674 181.093 4.60207C181.52 4.3674 181.989 4.25007 182.501 4.25007C183.099 4.25007 183.6 4.38874 184.005 4.66607C184.411 4.9434 184.699 5.28474 184.869 5.69007C185.115 5.2954 185.461 4.9594 185.909 4.68207C186.357 4.39407 186.901 4.25007 187.541 4.25007C188.021 4.25007 188.437 4.33007 188.789 4.49007C189.141 4.6394 189.429 4.85274 189.653 5.13007C189.888 5.4074 190.064 5.7434 190.181 6.13807C190.299 6.52207 190.357 6.9434 190.357 7.40207V12.3461H188.261V7.78607C188.261 6.7194 187.824 6.18607 186.949 6.18607C186.672 6.18607 186.427 6.25007 186.213 6.37807C186 6.4954 185.819 6.66074 185.669 6.87407C185.531 7.07674 185.419 7.32207 185.333 7.61007C185.259 7.89807 185.221 8.2074 185.221 8.53807V12.3461H183.125V7.78607C183.125 6.7194 182.667 6.18607 181.749 6.18607C181.483 6.18607 181.248 6.25007 181.045 6.37807C180.843 6.4954 180.672 6.66074 180.533 6.87407C180.395 7.07674 180.288 7.32207 180.213 7.61007C180.139 7.89807 180.101 8.2074 180.101 8.53807V12.3461H178.005V4.50607Z" fill="url(#paint0_linear)"/>
<defs>
<linearGradient id="paint0_linear" x1="96" y1="-2.65393" x2="96" y2="16.463" gradientUnits="userSpaceOnUse">
<stop stop-color="#575274"/>
<stop offset="1" stop-color="#312D46"/>
</linearGradient>
</defs>
</svg>
