<svg width="228" height="49" viewBox="0 0 228 49" fill="none" xmlns="http://www.w3.org/2000/svg">
<g clip-path="url(#clip0)">
<rect x="0.5" y="0.892822" width="227" height="47.2956" rx="3.5" fill="white" stroke="black"/>
<path d="M61.0249 26.6316H62.3579C62.4409 27.1833 62.7266 27.6228 63.2148 27.95C63.7031 28.2771 64.3232 28.4407 65.0752 28.4407C65.7881 28.4407 66.3765 28.2698 66.8403 27.928C67.3091 27.5813 67.5435 27.1467 67.5435 26.6243C67.5435 26.175 67.3726 25.804 67.0308 25.511C66.689 25.2131 66.1543 24.9714 65.4268 24.7859L64.0718 24.4343C63.1147 24.1951 62.4189 23.8484 61.9844 23.3943C61.5498 22.9402 61.3325 22.3372 61.3325 21.5852C61.3325 20.6868 61.6743 19.9617 62.3579 19.4099C63.0464 18.8533 63.9497 18.575 65.0679 18.575C66.0884 18.575 66.9429 18.8484 67.6313 19.3953C68.3198 19.9421 68.6909 20.6428 68.7446 21.4973H67.4189C67.3262 20.9553 67.0674 20.533 66.6426 20.2302C66.2227 19.9226 65.6831 19.7688 65.0239 19.7688C64.3208 19.7688 63.7544 19.9324 63.3247 20.2595C62.8999 20.5818 62.6875 21.009 62.6875 21.5413C62.6875 21.9563 62.8438 22.2932 63.1562 22.552C63.4736 22.8108 63.9961 23.033 64.7236 23.2185L65.8296 23.5115C66.9233 23.7849 67.707 24.1511 68.1807 24.6101C68.6592 25.0691 68.8984 25.6868 68.8984 26.4631C68.8984 27.4348 68.542 28.2087 67.8291 28.7849C67.1162 29.3562 66.1567 29.6418 64.9507 29.6418C63.8325 29.6418 62.9146 29.3684 62.1968 28.8215C61.4839 28.2747 61.0933 27.5447 61.0249 26.6316ZM70.7639 29.3928V21.4973H72.0236V29.3928H70.7639ZM72.0163 19.637C71.8454 19.8079 71.6379 19.8933 71.3938 19.8933C71.1496 19.8933 70.9421 19.8079 70.7712 19.637C70.6003 19.4612 70.5148 19.2537 70.5148 19.0144C70.5148 18.7751 70.6003 18.5701 70.7712 18.3992C70.9421 18.2234 71.1496 18.1355 71.3938 18.1355C71.6379 18.1355 71.8454 18.2234 72.0163 18.3992C72.1872 18.5701 72.2727 18.7751 72.2727 19.0144C72.2727 19.2537 72.1872 19.4612 72.0163 19.637ZM77.4193 28.1624C78.1469 28.1624 78.7182 27.9084 79.1332 27.4006C79.5531 26.8879 79.7631 26.197 79.7631 25.3279C79.7631 24.4636 79.5531 23.7751 79.1332 23.2625C78.7133 22.7498 78.142 22.4934 77.4193 22.4934C76.6967 22.4934 76.1352 22.7473 75.7348 23.2551C75.3344 23.7629 75.1342 24.4539 75.1342 25.3279C75.1342 26.2019 75.3344 26.8928 75.7348 27.4006C76.1352 27.9084 76.6967 28.1624 77.4193 28.1624ZM77.4779 32.425C76.5355 32.425 75.7714 32.2297 75.1854 31.8391C74.6044 31.4485 74.265 30.9236 74.1674 30.2644H75.5004C75.5688 30.5916 75.7763 30.8503 76.1229 31.0408C76.4696 31.2312 76.9213 31.3264 77.4779 31.3264C78.1859 31.3264 78.7377 31.1604 79.1332 30.8284C79.5336 30.5012 79.7338 30.0471 79.7338 29.4661V27.9133H79.6166C79.3676 28.3479 79.0282 28.6848 78.5985 28.9241C78.1688 29.1584 77.683 29.2756 77.141 29.2756C76.1254 29.2756 75.3197 28.9167 74.724 28.199C74.1283 27.4763 73.8305 26.5193 73.8305 25.3279C73.8305 24.1365 74.1308 23.177 74.7313 22.4495C75.3319 21.7219 76.1352 21.3582 77.141 21.3582C77.6928 21.3582 78.1957 21.4851 78.6498 21.739C79.1039 21.988 79.4457 22.325 79.6752 22.7498H79.7924V21.4973H80.9936V29.532C80.9936 30.4158 80.6762 31.1189 80.0414 31.6414C79.4066 32.1638 78.5521 32.425 77.4779 32.425ZM83.1666 29.3928V21.4973H84.3678V22.7424H84.485C84.9049 21.8196 85.6959 21.3582 86.858 21.3582C87.7418 21.3582 88.4229 21.6121 88.9015 22.1199C89.38 22.6228 89.6192 23.343 89.6192 24.2805V29.3928H88.3595V24.5881C88.3595 23.8801 88.2057 23.3552 87.898 23.0134C87.5953 22.6667 87.129 22.4934 86.4991 22.4934C85.8644 22.4934 85.359 22.6936 84.983 23.094C84.6119 23.4895 84.4264 24.0315 84.4264 24.72V29.3928H83.1666ZM95.7891 29.3928V21.4973H97.0488V29.3928H95.7891ZM97.0415 19.637C96.8706 19.8079 96.6631 19.8933 96.4189 19.8933C96.1748 19.8933 95.9673 19.8079 95.7964 19.637C95.6255 19.4612 95.54 19.2537 95.54 19.0144C95.54 18.7751 95.6255 18.5701 95.7964 18.3992C95.9673 18.2234 96.1748 18.1355 96.4189 18.1355C96.6631 18.1355 96.8706 18.2234 97.0415 18.3992C97.2124 18.5701 97.2979 18.7751 97.2979 19.0144C97.2979 19.2537 97.2124 19.4612 97.0415 19.637ZM99.2512 29.3928V21.4973H100.452V22.7424H100.57C100.989 21.8196 101.78 21.3582 102.943 21.3582C103.826 21.3582 104.508 21.6121 104.986 22.1199C105.465 22.6228 105.704 23.343 105.704 24.2805V29.3928H104.444V24.5881C104.444 23.8801 104.29 23.3552 103.983 23.0134C103.68 22.6667 103.214 22.4934 102.584 22.4934C101.949 22.4934 101.444 22.6936 101.068 23.094C100.696 23.4895 100.511 24.0315 100.511 24.72V29.3928H99.2512ZM121.776 21.4973L119.564 29.3928H118.282L116.517 23.2844H116.4L114.642 29.3928H113.368L111.156 21.4973H112.43L113.983 27.8108H114.1L115.865 21.4973H117.074L118.839 27.8108H118.956L120.509 21.4973H121.776ZM123.29 29.3928V21.4973H124.55V29.3928H123.29ZM124.542 19.637C124.371 19.8079 124.164 19.8933 123.92 19.8933C123.676 19.8933 123.468 19.8079 123.297 19.637C123.126 19.4612 123.041 19.2537 123.041 19.0144C123.041 18.7751 123.126 18.5701 123.297 18.3992C123.468 18.2234 123.676 18.1355 123.92 18.1355C124.164 18.1355 124.371 18.2234 124.542 18.3992C124.713 18.5701 124.799 18.7751 124.799 19.0144C124.799 19.2537 124.713 19.4612 124.542 19.637ZM127.279 19.4539H128.539V21.4973H130.297V22.552H128.539V27.0198C128.539 27.4836 128.632 27.8206 128.817 28.0305C129.003 28.2405 129.301 28.3455 129.711 28.3455C129.892 28.3455 130.087 28.3357 130.297 28.3162V29.3782C130.019 29.427 129.772 29.4514 129.557 29.4514C128.742 29.4514 128.158 29.2878 127.807 28.9607C127.455 28.6335 127.279 28.094 127.279 27.342V22.552H126.005V21.4973H127.279V19.4539ZM132.074 29.3928V18.3625H133.334V22.7424H133.451C133.652 22.2981 133.957 21.9563 134.367 21.717C134.782 21.4778 135.287 21.3582 135.883 21.3582C136.723 21.3582 137.387 21.6169 137.875 22.1345C138.363 22.6472 138.608 23.3625 138.608 24.2805V29.3928H137.348V24.5881C137.348 23.1917 136.74 22.4934 135.524 22.4934C134.831 22.4934 134.291 22.696 133.905 23.1013C133.525 23.5017 133.334 24.0413 133.334 24.72V29.3928H132.074ZM151.772 29.3928L150.71 26.3679H146.506L145.444 29.3928H144.06L147.956 18.824H149.26L153.156 29.3928H151.772ZM148.549 20.5305L146.894 25.2473H150.322L148.667 20.5305H148.549ZM158.493 21.3582C159.499 21.3582 160.303 21.7292 160.903 22.4714C161.509 23.2136 161.811 24.2048 161.811 25.4451C161.811 26.6804 161.509 27.6716 160.903 28.4187C160.298 29.1609 159.494 29.532 158.493 29.532C157.932 29.532 157.434 29.4172 156.999 29.1877C156.565 28.9534 156.24 28.6262 156.025 28.2063H155.908V32.0295H154.648V21.4973H155.849V22.8157H155.967C156.221 22.3616 156.57 22.0051 157.014 21.7463C157.463 21.4875 157.956 21.3582 158.493 21.3582ZM158.193 28.3967C158.916 28.3967 159.482 28.1355 159.892 27.613C160.303 27.0906 160.508 26.3679 160.508 25.4451C160.508 24.5222 160.303 23.7996 159.892 23.2771C159.487 22.7546 158.923 22.4934 158.2 22.4934C157.488 22.4934 156.921 22.7595 156.501 23.2917C156.081 23.8191 155.871 24.5369 155.871 25.4451C155.871 26.3484 156.079 27.0662 156.494 27.5984C156.914 28.1306 157.48 28.3967 158.193 28.3967ZM167.434 21.3582C168.44 21.3582 169.243 21.7292 169.844 22.4714C170.449 23.2136 170.752 24.2048 170.752 25.4451C170.752 26.6804 170.449 27.6716 169.844 28.4187C169.238 29.1609 168.435 29.532 167.434 29.532C166.873 29.532 166.375 29.4172 165.94 29.1877C165.505 28.9534 165.181 28.6262 164.966 28.2063H164.849V32.0295H163.589V21.4973H164.79V22.8157H164.907C165.161 22.3616 165.51 22.0051 165.955 21.7463C166.404 21.4875 166.897 21.3582 167.434 21.3582ZM167.134 28.3967C167.856 28.3967 168.423 28.1355 168.833 27.613C169.243 27.0906 169.448 26.3679 169.448 25.4451C169.448 24.5222 169.243 23.7996 168.833 23.2771C168.428 22.7546 167.864 22.4934 167.141 22.4934C166.428 22.4934 165.862 22.7595 165.442 23.2917C165.022 23.8191 164.812 24.5369 164.812 25.4451C164.812 26.3484 165.02 27.0662 165.435 27.5984C165.854 28.1306 166.421 28.3967 167.134 28.3967ZM172.603 29.3928V18.3625H173.863V29.3928H172.603ZM179.258 22.4714C178.628 22.4714 178.111 22.6838 177.705 23.1086C177.3 23.5334 177.073 24.095 177.024 24.7932H181.375C181.36 24.095 181.16 23.5334 180.774 23.1086C180.389 22.6838 179.883 22.4714 179.258 22.4714ZM181.338 27.3494H182.598C182.408 28.033 182.019 28.5676 181.433 28.9534C180.852 29.3391 180.132 29.532 179.273 29.532C178.179 29.532 177.312 29.1658 176.673 28.4333C176.033 27.696 175.713 26.7024 175.713 25.4524C175.713 24.2073 176.036 23.2136 176.68 22.4714C177.325 21.7292 178.189 21.3582 179.273 21.3582C180.337 21.3582 181.175 21.7122 181.785 22.4202C182.395 23.1282 182.701 24.0974 182.701 25.3279V25.8113H177.024V25.8699C177.058 26.6511 177.278 27.2712 177.683 27.7302C178.094 28.1892 178.633 28.4187 179.302 28.4187C180.323 28.4187 181.001 28.0623 181.338 27.3494Z" fill="black"/>
<path d="M50.2668 28.1023C50.0256 27.9817 49.7975 27.8385 49.6019 27.6275C49.0479 27.0323 48.6764 26.3164 48.5851 25.4348C48.546 25.0204 48.546 24.5984 48.6308 24.184C48.7416 23.6339 48.9697 23.1516 49.3152 22.7447C49.5368 22.4885 49.7649 22.2399 49.9865 21.9837C50.1234 21.8254 50.1495 21.5918 50.0321 21.4185C49.7844 21.0568 49.5107 20.7178 49.1848 20.439C48.7807 20.0848 48.3244 19.8437 47.829 19.708C47.4771 19.6176 47.1251 19.5649 46.7601 19.6026C46.1539 19.6704 45.5738 19.8663 45.0002 20.0923C44.544 20.2657 44.1007 20.3184 43.6314 20.1602C43.0905 19.9718 42.5429 19.7985 41.9759 19.7231C41.3958 19.6478 40.8352 19.693 40.2877 19.9341C39.6033 20.2355 39.0754 20.7479 38.6517 21.4336C38.3388 21.9385 38.1042 22.4885 37.9477 23.0838C37.7652 23.7695 37.6805 24.4778 37.6805 24.8621C37.6544 25.8794 37.7392 26.5575 37.863 27.2282C37.9608 27.7406 38.0977 28.2379 38.2606 28.7277C38.6452 29.8956 39.1471 30.9807 39.8314 31.9452C40.1965 32.4576 40.6136 32.9022 41.1416 33.1734C41.4805 33.3468 41.8325 33.4146 42.191 33.3468C42.569 33.2789 42.934 33.1207 43.2925 32.9625C43.5206 32.8645 43.7488 32.7741 43.9899 32.7289C44.3745 32.6535 44.7395 32.7364 45.1045 32.8645C45.4891 33.0001 45.8606 33.1584 46.2452 33.2789C46.8253 33.4598 47.3597 33.3769 47.8682 33.0152C48.5004 32.5631 48.9697 31.9226 49.3803 31.2218C49.8366 30.4306 50.2212 29.5942 50.4688 28.6825C50.5471 28.4263 50.4754 28.2002 50.2668 28.1023Z" fill="black"/>
<path d="M44.0617 19.2861C44.1269 19.2785 44.1986 19.271 44.2638 19.2635C44.7265 19.2183 45.1633 19.1052 45.5543 18.7888C45.8476 18.5476 46.1018 18.2688 46.33 17.9524C46.6102 17.5605 46.8449 17.131 46.9883 16.6488C47.0926 16.3021 47.1252 15.9329 47.1578 15.5712C47.1773 15.3527 47.1773 15.1417 47.1904 14.9232C47.2099 14.5841 47.0078 14.3129 46.6819 14.4033C46.356 14.4937 46.0367 14.6067 45.7303 14.7725C45.2675 15.0212 44.8439 15.3376 44.518 15.8048C43.9313 16.6412 43.6771 17.6208 43.625 18.6833C43.625 18.7435 43.625 18.7963 43.625 18.8566C43.625 19.158 43.801 19.3313 44.0617 19.2861Z" fill="black"/>
</g>
<defs>
<clipPath id="clip0">
<rect width="228" height="48.2956" fill="white" transform="translate(0 0.392822)"/>
</clipPath>
</defs>
</svg>
