<svg width="160" height="64" viewBox="0 0 160 64" fill="none" xmlns="http://www.w3.org/2000/svg">
<rect width="160" height="64" rx="16" fill="url(#paint0_linear)"/>
<path d="M59.574 36.724C59.1447 36.724 58.734 36.6633 58.342 36.542C57.95 36.4207 57.5907 36.2387 57.264 35.996C56.9373 35.7533 56.6527 35.4593 56.41 35.114C56.1673 34.7593 55.976 34.3487 55.836 33.882L57.614 33.182C57.7447 33.686 57.9733 34.106 58.3 34.442C58.6267 34.7687 59.056 34.932 59.588 34.932C59.784 34.932 59.9707 34.9087 60.148 34.862C60.3347 34.806 60.498 34.7313 60.638 34.638C60.7873 34.5353 60.904 34.4093 60.988 34.26C61.072 34.1107 61.114 33.938 61.114 33.742C61.114 33.5553 61.0813 33.3873 61.016 33.238C60.9507 33.0887 60.8387 32.9487 60.68 32.818C60.5307 32.6873 60.33 32.5613 60.078 32.44C59.8353 32.3187 59.532 32.1927 59.168 32.062L58.552 31.838C58.2813 31.7447 58.006 31.6187 57.726 31.46C57.4553 31.3013 57.208 31.11 56.984 30.886C56.76 30.662 56.5733 30.4007 56.424 30.102C56.284 29.794 56.214 29.4487 56.214 29.066C56.214 28.674 56.2887 28.31 56.438 27.974C56.5967 27.6287 56.816 27.33 57.096 27.078C57.3853 26.8167 57.726 26.616 58.118 26.476C58.5193 26.3267 58.9627 26.252 59.448 26.252C59.952 26.252 60.386 26.322 60.75 26.462C61.1233 26.5927 61.436 26.7653 61.688 26.98C61.9493 27.1853 62.1593 27.414 62.318 27.666C62.4767 27.918 62.5933 28.156 62.668 28.38L61.002 29.08C60.9087 28.8 60.736 28.548 60.484 28.324C60.2413 28.1 59.9053 27.988 59.476 27.988C59.0653 27.988 58.7247 28.086 58.454 28.282C58.1833 28.4687 58.048 28.716 58.048 29.024C58.048 29.3227 58.1787 29.5793 58.44 29.794C58.7013 29.9993 59.1167 30.2 59.686 30.396L60.316 30.606C60.7173 30.746 61.0813 30.9093 61.408 31.096C61.744 31.2733 62.0287 31.488 62.262 31.74C62.5047 31.992 62.6867 32.2813 62.808 32.608C62.9387 32.9253 63.004 33.294 63.004 33.714C63.004 34.2367 62.8967 34.6893 62.682 35.072C62.4767 35.4453 62.2107 35.7533 61.884 35.996C61.5573 36.2387 61.1887 36.4207 60.778 36.542C60.3673 36.6633 59.966 36.724 59.574 36.724ZM65.3587 28.646C65.2001 28.646 65.0461 28.618 64.8967 28.562C64.7567 28.4967 64.6307 28.4127 64.5187 28.31C64.4161 28.198 64.3321 28.072 64.2667 27.932C64.2107 27.792 64.1827 27.638 64.1827 27.47C64.1827 27.302 64.2107 27.148 64.2667 27.008C64.3321 26.868 64.4161 26.7467 64.5187 26.644C64.6307 26.532 64.7567 26.448 64.8967 26.392C65.0461 26.3267 65.2001 26.294 65.3587 26.294C65.6854 26.294 65.9654 26.4107 66.1987 26.644C66.4321 26.868 66.5487 27.1433 66.5487 27.47C66.5487 27.7967 66.4321 28.0767 66.1987 28.31C65.9654 28.534 65.6854 28.646 65.3587 28.646ZM64.4487 36.5V29.64H66.2827V36.5H64.4487ZM71.0554 39.748C70.5701 39.748 70.1361 39.6827 69.7534 39.552C69.3801 39.4307 69.0534 39.2673 68.7734 39.062C68.4934 38.866 68.2601 38.6467 68.0734 38.404C67.8868 38.1613 67.7514 37.9187 67.6674 37.676L69.4174 36.976C69.5481 37.34 69.7628 37.62 70.0614 37.816C70.3601 38.0213 70.6914 38.124 71.0554 38.124C71.6341 38.124 72.0914 37.942 72.4274 37.578C72.7634 37.2233 72.9314 36.724 72.9314 36.08V35.604H72.8194C72.6048 35.9027 72.3201 36.1407 71.9654 36.318C71.6201 36.486 71.2094 36.57 70.7334 36.57C70.3228 36.57 69.9214 36.486 69.5294 36.318C69.1468 36.15 68.8061 35.912 68.5074 35.604C68.2088 35.2867 67.9661 34.9087 67.7794 34.47C67.5928 34.0313 67.4994 33.5413 67.4994 33C67.4994 32.4587 67.5928 31.9687 67.7794 31.53C67.9661 31.082 68.2088 30.704 68.5074 30.396C68.8061 30.0787 69.1468 29.836 69.5294 29.668C69.9214 29.5 70.3228 29.416 70.7334 29.416C71.2094 29.416 71.6201 29.5047 71.9654 29.682C72.3201 29.85 72.6048 30.0833 72.8194 30.382H72.9314V29.64H74.6814V36.01C74.6814 36.5887 74.5928 37.1067 74.4154 37.564C74.2381 38.0307 73.9908 38.4227 73.6734 38.74C73.3561 39.0667 72.9734 39.314 72.5254 39.482C72.0868 39.6593 71.5968 39.748 71.0554 39.748ZM71.1254 34.918C71.3494 34.918 71.5688 34.876 71.7834 34.792C72.0074 34.708 72.2034 34.5867 72.3714 34.428C72.5394 34.26 72.6748 34.0593 72.7774 33.826C72.8801 33.5833 72.9314 33.308 72.9314 33C72.9314 32.692 72.8801 32.4167 72.7774 32.174C72.6748 31.9313 72.5394 31.7307 72.3714 31.572C72.2034 31.404 72.0074 31.278 71.7834 31.194C71.5688 31.11 71.3494 31.068 71.1254 31.068C70.9014 31.068 70.6821 31.11 70.4674 31.194C70.2528 31.278 70.0614 31.404 69.8934 31.572C69.7254 31.74 69.5901 31.9453 69.4874 32.188C69.3848 32.4213 69.3334 32.692 69.3334 33C69.3334 33.308 69.3848 33.5833 69.4874 33.826C69.5901 34.0593 69.7254 34.26 69.8934 34.428C70.0614 34.5867 70.2528 34.708 70.4674 34.792C70.6821 34.876 70.9014 34.918 71.1254 34.918ZM77.9669 30.536H78.0789C78.2936 30.1907 78.5829 29.92 78.9469 29.724C79.3109 29.5187 79.7263 29.416 80.1929 29.416C80.6223 29.416 81.0003 29.486 81.3269 29.626C81.6536 29.766 81.9196 29.9667 82.1249 30.228C82.3396 30.48 82.4983 30.788 82.6009 31.152C82.7129 31.5067 82.7689 31.9033 82.7689 32.342V36.5H80.9349V32.566C80.9349 32.0713 80.8229 31.7073 80.5989 31.474C80.3843 31.2313 80.0669 31.11 79.6469 31.11C79.3949 31.11 79.1709 31.166 78.9749 31.278C78.7883 31.3807 78.6249 31.5253 78.4849 31.712C78.3543 31.8893 78.2516 32.104 78.1769 32.356C78.1116 32.5987 78.0789 32.86 78.0789 33.14V36.5H76.2449V29.64H77.9669V30.536ZM90.9787 36.724C90.3907 36.724 89.8541 36.6307 89.3687 36.444C88.8927 36.248 88.4867 35.968 88.1507 35.604C87.8147 35.24 87.5534 34.8013 87.3667 34.288C87.1801 33.7653 87.0867 33.1727 87.0867 32.51V26.476H88.9767V32.622C88.9767 32.958 89.0187 33.266 89.1027 33.546C89.1867 33.826 89.3127 34.0687 89.4807 34.274C89.6487 34.4793 89.8587 34.6427 90.1107 34.764C90.3627 34.876 90.6521 34.932 90.9787 34.932C91.3147 34.932 91.6087 34.876 91.8607 34.764C92.1127 34.6427 92.3227 34.4793 92.4907 34.274C92.6587 34.0687 92.7847 33.826 92.8687 33.546C92.9527 33.266 92.9947 32.958 92.9947 32.622V26.476H94.8847V32.51C94.8847 33.1353 94.7914 33.7093 94.6047 34.232C94.4274 34.7453 94.1661 35.1887 93.8207 35.562C93.4847 35.926 93.0741 36.2107 92.5887 36.416C92.1127 36.6213 91.5761 36.724 90.9787 36.724ZM96.396 29.64H98.118V30.466H98.23C98.398 30.1767 98.6593 29.9293 99.014 29.724C99.3686 29.5187 99.8073 29.416 100.33 29.416C100.769 29.416 101.184 29.5093 101.576 29.696C101.977 29.8733 102.327 30.1253 102.626 30.452C102.934 30.7693 103.177 31.152 103.354 31.6C103.531 32.048 103.62 32.538 103.62 33.07C103.62 33.602 103.531 34.092 103.354 34.54C103.177 34.988 102.934 35.3753 102.626 35.702C102.327 36.0193 101.977 36.2713 101.576 36.458C101.184 36.6353 100.769 36.724 100.33 36.724C99.8073 36.724 99.3686 36.6213 99.014 36.416C98.6593 36.2107 98.398 35.9633 98.23 35.674H98.118L98.23 36.654V39.524H96.396V29.64ZM99.952 35.03C100.195 35.03 100.423 34.9833 100.638 34.89C100.862 34.7967 101.058 34.666 101.226 34.498C101.394 34.33 101.529 34.1247 101.632 33.882C101.735 33.6393 101.786 33.3687 101.786 33.07C101.786 32.7713 101.735 32.5007 101.632 32.258C101.529 32.0153 101.394 31.81 101.226 31.642C101.058 31.474 100.862 31.3433 100.638 31.25C100.423 31.1567 100.195 31.11 99.952 31.11C99.7093 31.11 99.476 31.1567 99.252 31.25C99.0373 31.334 98.846 31.46 98.678 31.628C98.51 31.796 98.3746 32.0013 98.272 32.244C98.1693 32.4867 98.118 32.762 98.118 33.07C98.118 33.378 98.1693 33.6533 98.272 33.896C98.3746 34.1387 98.51 34.344 98.678 34.512C98.846 34.68 99.0373 34.8107 99.252 34.904C99.476 34.988 99.7093 35.03 99.952 35.03Z" fill="white"/>
<defs>
<linearGradient id="paint0_linear" x1="80" y1="0" x2="80" y2="64" gradientUnits="userSpaceOnUse">
<stop stop-color="#FD6A4E"/>
<stop offset="1" stop-color="#F94530"/>
</linearGradient>
</defs>
</svg>
