<svg width="11" height="11" viewBox="0 0 11 11" fill="none" xmlns="http://www.w3.org/2000/svg">
<path d="M5.49972 7.4442C6.41098 7.4442 7.1497 6.70092 7.1497 5.78405C7.1497 4.86718 6.41098 4.1239 5.49972 4.1239C4.58846 4.1239 3.84973 4.86718 3.84973 5.78405C3.84973 6.70092 4.58846 7.4442 5.49972 7.4442Z" fill="#B3B3B3"/>
<path d="M9.8999 1.35676H8.15642L7.47443 0.609698C7.37193 0.496472 7.24709 0.406002 7.10788 0.344067C6.96867 0.282132 6.81815 0.250094 6.66594 0.25H4.33396C4.02596 0.25 3.72896 0.382812 3.51997 0.609698L2.84347 1.35676H1.09999C0.494995 1.35676 0 1.85481 0 2.46352V9.1041C0 9.71282 0.494995 10.2109 1.09999 10.2109H9.8999C10.5049 10.2109 10.9999 9.71282 10.9999 9.1041V2.46352C10.9999 1.85481 10.5049 1.35676 9.8999 1.35676ZM5.49995 8.55072C3.98196 8.55072 2.74997 7.31114 2.74997 5.78381C2.74997 4.25648 3.98196 3.01691 5.49995 3.01691C7.01793 3.01691 8.24992 4.25648 8.24992 5.78381C8.24992 7.31114 7.01793 8.55072 5.49995 8.55072Z" fill="#B3B3B3"/>
</svg>
