<svg width="292" height="292" viewBox="0 0 292 292" fill="none" xmlns="http://www.w3.org/2000/svg">
<path d="M242.217 139.538C242.217 161.099 234.917 181.091 222.683 197.164C215.975 205.788 207.885 213.432 198.611 219.312C183.615 229.113 165.659 234.797 146.323 234.797C93.245 234.601 50.2305 191.872 50.2305 139.342C50.2305 86.6168 93.245 44.0836 146.125 44.0836C165.462 44.0836 183.418 49.7678 198.414 59.372C207.687 65.2522 215.777 72.8964 222.486 81.5206C234.917 97.9851 242.217 117.978 242.217 139.538Z" fill="#EAEEF9"/>
<path d="M46.7972 208.389C48.573 208.389 50.1516 207.017 50.1516 205.057C50.1516 203.293 48.7704 201.725 46.7972 201.725C45.0214 201.725 43.4429 203.097 43.4429 205.057C43.4429 206.821 45.0214 208.389 46.7972 208.389Z" fill="url(#paint0_linear)"/>
<path d="M227.221 67.0162C228.997 67.0162 230.379 65.6442 230.379 63.8801C230.379 62.1161 228.997 60.744 227.221 60.744C225.446 60.744 224.064 62.1161 224.064 63.8801C224.262 65.6442 225.643 67.0162 227.221 67.0162Z" fill="url(#paint1_linear)"/>
<path d="M193.678 221.272C193.678 228.525 187.758 234.601 180.261 234.601H108.635C101.335 234.601 95.218 228.721 95.218 221.272V53.8839C95.218 46.6317 101.137 40.5555 108.635 40.5555H180.852C188.153 40.5555 194.27 46.4357 194.27 53.8839V221.468H193.678V221.272Z" fill="white"/>
<path d="M180.655 40.5555C187.956 40.5555 194.073 46.4357 194.073 53.8839V221.86C194.073 229.113 188.153 235.189 180.655 235.189H108.635C101.335 235.189 95.218 229.309 95.218 221.86V53.8839C95.218 46.6317 101.137 40.5555 108.635 40.5555H180.655Z" fill="url(#paint2_linear)"/>
<path d="M187.167 53.2959V221.272C187.167 223.82 185.785 225.78 183.812 226.956C182.826 227.349 181.839 227.741 180.655 227.741H108.635C107.846 227.741 107.057 227.545 106.268 227.349C103.703 226.564 102.124 224.212 102.124 221.272V53.8839C102.124 50.9438 103.9 48.7877 106.268 47.8077C107.057 47.6117 107.846 47.4157 108.635 47.4157H119.29C120.672 47.4157 121.658 48.3957 121.658 49.7678C121.658 52.5118 124.026 54.8639 126.788 54.8639H163.292C166.054 54.8639 168.422 52.5118 168.422 49.7678C168.422 48.3957 169.408 47.4157 170.789 47.4157H180.852V47.0237C182.036 47.0237 183.023 47.2197 184.01 47.8077C185.785 48.7877 187.167 50.7478 187.167 53.2959Z" fill="white"/>
<path d="M150.861 49.1797H141.192C140.206 49.1797 139.811 48.1997 139.811 47.8077C139.811 46.8277 140.798 46.4357 141.192 46.4357H150.861C151.847 46.4357 152.242 47.4157 152.242 47.8077C152.242 48.7877 151.847 49.1797 150.861 49.1797Z" fill="#2D5887"/>
<path d="M135.667 49.1797H135.273C134.286 49.1797 133.892 48.1997 133.892 47.8077C133.892 46.8277 134.878 46.4357 135.273 46.4357H135.667C136.654 46.4357 137.049 47.4157 137.049 47.8077C137.049 48.7877 136.654 49.1797 135.667 49.1797Z" fill="#2D5887"/>
<g filter="url(#filter0_d)">
<path d="M100.71 186.588H46.6458C42.3048 186.588 38.7532 183.06 38.7532 178.748V113.086C38.7532 108.774 42.3048 105.246 46.6458 105.246H100.71C105.051 105.246 108.602 108.774 108.602 113.086V178.748C108.8 183.06 105.248 186.588 100.71 186.588Z" fill="white"/>
</g>
<path d="M86.8979 164.048H49.4082C48.2243 164.048 47.4351 163.068 47.4351 162.088C47.4351 160.912 48.4216 160.128 49.4082 160.128H87.0953C88.2791 160.128 89.0684 161.108 89.0684 162.088C88.8711 163.068 88.0818 164.048 86.8979 164.048Z" fill="#CED7E2"/>
<path d="M65.9826 175.22H49.4082C48.2243 175.22 47.4351 174.24 47.4351 173.26C47.4351 172.28 48.4216 171.3 49.4082 171.3H65.9826C67.1665 171.3 67.9558 172.28 67.9558 173.26C67.7584 174.436 66.9692 175.22 65.9826 175.22Z" fill="#CED7E2"/>
<path d="M93.0144 123.867C92.8171 123.671 92.6198 123.475 92.4225 123.475C90.0547 121.515 87.8843 119.555 85.5165 117.791C85.3192 117.595 84.9245 117.399 84.5299 117.399C82.7541 117.399 80.9782 117.399 79.2024 117.399C78.4132 117.399 78.0185 117.791 78.0185 118.575C77.8212 120.339 76.44 121.907 74.6642 121.907C72.691 121.907 71.1125 120.535 70.9152 118.771C70.7179 117.007 70.3233 117.595 64.7985 117.399C64.2065 117.399 63.8119 117.595 63.2199 117.987C60.8522 119.947 58.4844 121.907 56.3139 123.671C56.1166 123.671 56.1166 123.867 55.9193 123.867C55.13 124.455 55.1301 124.847 55.722 125.631C56.9059 127.003 58.0898 128.375 59.0763 129.747C59.6683 130.335 59.8656 130.531 61.0495 129.943C61.6414 129.747 62.628 129.159 63.8119 128.571V146.015C63.8119 147.191 64.0092 147.583 65.3904 147.583C71.3098 147.583 77.2293 147.583 83.1487 147.583C84.5299 147.583 84.7272 147.387 84.7272 146.015V128.571C86.1084 129.159 87.095 129.747 87.6869 129.943C88.8708 130.531 89.0681 130.335 89.6601 129.747C90.844 128.375 92.0279 127.003 93.2117 125.631C93.8037 125.043 93.8037 124.455 93.0144 123.867Z" fill="#DDE1F0"/>
<path d="M82.3594 129.747L80.3863 131.119C80.189 131.315 79.597 131.315 79.3997 131.119L77.4266 129.747C77.2292 129.551 77.2292 129.355 77.2292 129.355V126.219C77.2292 126.023 77.4266 125.827 77.6239 125.827H82.1621C82.3594 125.827 82.5567 126.023 82.5567 126.219V129.355C82.5567 129.551 82.3594 129.747 82.3594 129.747Z" fill="#C5CCDE"/>
<path d="M61.444 129.943C60.2601 130.531 60.0628 130.335 59.4709 129.747C58.287 128.375 57.1031 127.003 56.1165 125.631C55.5246 124.847 55.5246 124.455 56.3138 123.867C56.5112 123.867 56.5112 123.671 56.7085 123.671L61.444 129.943Z" fill="#C5CCDE"/>
<path d="M93.4091 125.631C92.2252 127.003 91.0413 128.375 89.8574 129.747C89.2655 130.335 89.0682 130.335 87.8843 129.943L92.6198 123.475C92.8171 123.671 93.0145 123.867 93.2118 123.867C94.001 124.455 94.001 125.043 93.4091 125.631Z" fill="#C5CCDE"/>
<g filter="url(#filter1_d)">
<path d="M245.243 186.588H191.179C186.838 186.588 183.286 183.06 183.286 178.748V113.086C183.286 108.774 186.838 105.246 191.179 105.246H245.243C249.584 105.246 253.135 108.774 253.135 113.086V178.748C253.135 183.06 249.584 186.588 245.243 186.588Z" fill="white"/>
</g>
<path d="M231.431 164.048H193.744C192.56 164.048 191.771 163.068 191.771 162.088C191.771 160.912 192.757 160.128 193.744 160.128H231.431C232.615 160.128 233.404 161.108 233.404 162.088C233.404 163.068 232.418 164.048 231.431 164.048Z" fill="#CED7E2"/>
<path d="M210.318 175.22H193.744C192.56 175.22 191.771 174.24 191.771 173.26C191.771 172.28 192.757 171.3 193.744 171.3H210.318C211.502 171.3 212.291 172.28 212.291 173.26C212.291 174.436 211.502 175.22 210.318 175.22Z" fill="#CED7E2"/>
<path d="M229.259 148.759L222.551 149.739C222.156 149.739 221.959 149.543 221.761 149.347L221.564 148.563L217.223 131.707L216.828 128.571L212.488 148.171L212.29 149.151C212.29 149.543 211.896 149.739 211.501 149.543L205.779 148.955H205.187C204.792 148.955 204.595 148.563 204.595 148.171L204.792 147.387L209.133 119.555L209.331 118.379C209.331 118.183 209.528 117.987 209.922 117.987H223.537C223.734 117.987 224.129 118.183 224.129 118.379L224.326 119.359V119.555L229.851 147.387V147.779C229.851 148.367 229.654 148.563 229.259 148.759Z" fill="#DDE1F0"/>
<path d="M224.327 124.651C222.551 123.867 221.17 122.691 219.986 121.123C219.789 120.927 219.986 120.731 220.183 120.535C220.381 120.339 220.578 120.535 220.775 120.731C221.762 122.299 222.946 123.279 224.524 123.867C224.722 124.063 224.919 124.259 224.722 124.455C224.722 124.455 224.524 124.651 224.327 124.651Z" fill="#C5CCDE"/>
<path d="M209.528 124.651C211.304 123.867 212.685 122.691 213.869 121.123C214.067 120.927 213.869 120.731 213.672 120.535C213.475 120.339 213.277 120.535 213.08 120.731C212.093 122.299 210.91 123.279 209.331 123.867C209.134 124.063 208.936 124.259 209.134 124.455C209.134 124.455 209.331 124.651 209.528 124.651Z" fill="#C5CCDE"/>
<path d="M216.829 126.219C216.632 126.219 216.435 126.023 216.435 125.827V119.947C216.435 119.751 216.632 119.555 216.829 119.555C217.027 119.555 217.224 119.751 217.224 119.947V125.827C217.224 126.023 217.027 126.219 216.829 126.219Z" fill="#C5CCDE"/>
<path d="M224.327 119.752H209.134L209.332 118.576C209.332 118.38 209.529 118.184 209.924 118.184H223.538C223.736 118.184 224.13 118.38 224.13 118.576L224.327 119.752Z" fill="#C5CCDE"/>
<path d="M212.291 148.367L212.094 149.347C212.094 149.739 211.699 149.935 211.305 149.739L205.583 149.151H204.991C204.596 149.151 204.399 148.759 204.399 148.367L204.596 147.583L212.291 148.367Z" fill="#C5CCDE"/>
<path d="M229.26 148.759L222.552 149.739C222.157 149.739 221.96 149.543 221.762 149.347L221.565 148.563L229.655 147.779V148.171C229.852 148.367 229.655 148.563 229.26 148.759Z" fill="#C5CCDE"/>
<g filter="url(#filter2_dd)">
<path d="M194.467 71.1324C194.467 71.5244 194.467 71.7204 194.467 72.1124C194.467 77.6006 190.126 82.1087 184.602 82.1087C179.077 82.1087 174.736 77.0126 174.736 71.5244V71.7204C174.736 77.2086 169.606 79.7566 164.278 79.7566C158.753 79.7566 155.004 77.7966 155.004 72.3084C155.004 77.7966 150.663 82.3047 145.139 82.3047C140.206 82.3047 136.062 78.1886 135.47 73.0925C135.47 72.7004 135.47 72.1124 135.47 71.7204C135.47 77.2086 130.34 80.7366 124.815 80.7366C119.29 80.7366 115.542 77.7966 115.542 72.3084C115.542 72.5044 115.542 72.7004 115.542 72.8964C115.147 78.1886 111.003 82.3047 105.676 82.3047C100.151 82.3047 95.8101 77.7966 95.8101 72.3084C95.8101 71.9164 95.8101 71.7204 95.8101 71.3284V60.1561C95.8101 59.1761 96.2047 58.1961 96.7966 57.412L106.662 45.8477H183.418L193.283 57.412C193.875 58.1961 194.27 59.1761 194.27 60.1561V71.1324H194.467Z" fill="url(#paint3_linear)"/>
</g>
<path d="M135.47 58.0014C135.273 58.3934 135.273 58.9814 135.273 59.3734V72.8978C135.273 72.5058 135.273 71.9177 135.273 71.5257C135.273 77.0139 130.735 82.11 125.21 82.11C119.685 82.11 115.344 77.6019 115.344 72.1137C115.344 72.3098 115.344 72.5058 115.344 72.7018L115.542 60.1574C115.542 59.3734 115.739 58.7854 116.133 58.0014L121.856 48.0051L123.237 46.045H139.417L135.47 58.0014Z" fill="white"/>
<path d="M154.61 58C154.807 58.3921 154.807 58.7841 154.807 59.3721V69.9564C154.807 70.1524 154.807 72.1124 154.807 71.5244C154.807 77.0126 158.753 82.1087 164.87 82.1087C170.395 82.1087 174.736 77.6006 174.736 72.1124C174.736 72.3084 174.736 72.5044 174.736 72.7004L174.539 60.1561C174.539 59.3721 174.341 58.7841 173.947 58L168.225 47.8078L166.843 45.8477H150.664L154.61 58Z" fill="white"/>
<g filter="url(#filter3_d)">
<path d="M181.117 201.096H109.16C103.243 201.096 98.5085 196.394 98.5085 190.516V103.047C98.5085 97.1692 103.243 92.4666 109.16 92.4666H181.117C187.034 92.4666 191.768 97.1692 191.768 103.047V190.516C191.532 196.394 186.798 201.096 181.117 201.096Z" fill="white"/>
</g>
<path d="M162.654 171H112.711C111.29 171 110.107 169.824 110.107 168.413C110.107 167.003 111.29 165.827 112.711 165.827H162.654C164.074 165.827 165.258 167.003 165.258 168.413C165.258 169.824 164.074 171 162.654 171Z" fill="#CED7E2"/>
<path d="M134.724 185.813H112.711C111.29 185.813 110.107 184.637 110.107 183.227C110.107 181.816 111.29 180.64 112.711 180.64H134.724C136.144 180.64 137.327 181.816 137.327 183.227C137.091 184.637 136.144 185.813 134.724 185.813Z" fill="#CED7E2"/>
<path d="M174.726 137.141C174.489 136.671 174.253 136.201 174.016 135.966C173.069 134.79 171.886 133.614 169.755 132.909C166.915 131.968 164.548 131.733 162.418 131.498C161.944 131.498 161.234 131.498 160.761 131.263C154.37 130.558 149.163 129.617 137.801 115.509C136.617 114.099 136.144 112.688 134.724 111.277C133.54 110.101 131.41 111.512 128.806 111.982C128.333 112.217 127.623 112.217 127.149 112.217C125.019 112.217 122.652 111.982 120.522 111.747C117.445 111.512 119.338 109.866 115.551 132.909C115.314 134.555 115.078 136.436 114.841 138.082C114.841 139.492 114.604 141.138 114.841 142.549C114.841 143.255 114.841 144.195 115.788 144.195C125.493 145.136 131.647 144.665 147.032 144.665C154.843 144.665 162.418 144.665 169.992 143.255L171.886 143.019C173.306 142.784 175.2 142.314 175.2 141.138C175.436 139.963 175.2 138.552 174.726 137.141Z" fill="url(#paint4_linear)"/>
<path d="M162.654 131.5L160.998 136.673C151.056 136.202 140.878 130.089 135.671 122.095C133.777 119.273 132.357 116.216 130.227 113.865C130.227 113.865 129.516 113.16 128.806 112.454C131.41 111.984 133.304 110.338 134.724 111.749C135.671 112.689 136.144 113.63 136.854 114.57C137.091 114.806 137.328 115.276 137.564 115.511L137.801 115.746C138.511 116.687 139.221 117.392 139.931 118.097C140.168 118.332 140.405 118.568 140.641 118.803C141.351 119.743 142.062 120.449 142.772 121.154C143.008 121.389 143.245 121.624 143.482 121.859C144.192 122.565 144.902 123.27 145.612 123.976C145.849 124.211 146.085 124.446 146.322 124.681C147.032 125.386 147.742 125.857 148.452 126.327C148.689 126.562 149.163 126.797 149.399 127.032C149.873 127.503 150.583 127.738 151.056 128.208C151.53 128.443 151.766 128.678 152.24 128.913C153.423 129.384 154.37 129.854 155.317 130.324C155.79 130.559 156.027 130.559 156.5 130.559C158.157 131.029 159.577 131.029 161.234 131.265C161.471 131.5 161.944 131.5 162.654 131.5Z" fill="url(#paint5_linear)"/>
<path d="M175.436 141.609C175.436 142.784 173.542 143.255 172.122 143.49L170.229 143.725C162.654 145.136 154.843 145.136 147.269 145.136C131.883 145.136 125.729 145.606 116.024 144.665C115.314 144.665 115.314 143.725 115.078 143.019C115.078 141.609 115.078 139.963 115.078 138.552C120.522 139.022 143.718 140.198 161.234 138.317C166.205 137.847 170.465 137.141 174.016 135.966C174.253 136.436 174.489 136.671 174.726 137.141C175.199 138.552 175.436 139.963 175.436 141.609Z" fill="#FFF5F2"/>
<path d="M174.726 137.141C171.176 138.317 167.388 139.022 163.601 139.493C162.891 139.493 162.418 139.493 161.944 139.257C161.708 139.022 161.471 138.552 161.471 138.317C161.471 138.082 161.471 137.847 161.471 137.847C161.234 135.73 160.998 133.614 161.234 131.498C163.838 131.733 166.678 131.968 170.229 133.144C172.359 133.849 173.543 134.79 174.489 136.201C174.253 136.201 174.489 136.671 174.726 137.141Z" fill="#FFF5F2"/>
<path d="M137.564 115.274C137.564 115.509 137.564 115.509 137.564 115.274L134.961 117.39C134.961 117.39 134.724 117.625 134.487 117.625C134.25 117.625 134.014 117.625 134.014 117.39C133.777 117.155 133.777 116.685 134.014 116.45L136.617 114.334C136.617 114.334 136.617 114.334 136.854 114.334C137.091 114.804 137.328 115.039 137.564 115.274Z" fill="#DFECFD"/>
<path d="M140.405 118.801C140.405 118.801 140.405 119.036 140.168 119.036C139.458 119.977 138.511 120.682 137.565 121.388C137.565 121.388 137.328 121.623 137.091 121.623C136.854 121.623 136.618 121.623 136.618 121.388C136.381 121.152 136.381 120.682 136.618 120.447C137.565 119.742 138.275 119.036 139.221 118.096C139.458 117.861 139.458 117.861 139.695 117.861C139.932 118.331 140.168 118.566 140.405 118.801Z" fill="#DFECFD"/>
<path d="M143.245 121.858C143.245 122.093 143.245 122.093 143.008 122.093C142.061 123.033 141.351 123.974 140.404 124.679C140.168 124.914 140.168 124.914 139.931 124.914C139.694 124.914 139.694 124.914 139.458 124.679C139.221 124.444 139.221 123.974 139.458 123.739C140.404 122.798 141.114 121.858 142.061 121.152C142.061 121.152 142.298 120.917 142.535 120.917C142.771 121.388 143.008 121.623 143.245 121.858Z" fill="#DFECFD"/>
<path d="M146.322 124.679C146.322 124.914 146.322 124.914 146.085 124.914C145.139 125.62 144.192 126.56 143.245 127.736C143.008 127.971 143.008 127.971 142.772 127.971C142.535 127.971 142.535 127.971 142.298 127.736C142.061 127.501 142.061 127.031 142.298 126.796C143.245 125.62 144.192 124.679 145.139 123.739H145.375C145.612 124.209 145.849 124.679 146.322 124.679Z" fill="#DFECFD"/>
<path d="M149.163 127.266C148.452 128.441 147.742 129.617 147.269 130.793C147.269 131.028 147.032 131.028 146.796 131.028H146.559C146.322 130.793 146.085 130.558 146.322 130.087C147.032 128.912 147.506 127.736 148.216 126.56C148.216 126.56 148.216 126.325 148.452 126.325C148.689 126.796 148.926 127.031 149.163 127.266Z" fill="#DFECFD"/>
<path d="M152.003 128.912L151.53 132.674C151.53 132.909 151.293 133.144 150.82 133.144C150.583 133.144 150.346 132.674 150.346 132.439L151.056 128.441C151.056 128.441 151.056 128.206 151.293 128.206C151.293 128.441 151.53 128.677 152.003 128.912Z" fill="#DFECFD"/>
<path d="M156.263 130.558C156.027 131.733 156.027 132.674 155.79 133.849C155.79 134.085 155.553 134.32 155.08 134.32C155.08 134.32 155.08 134.32 154.843 134.32C154.607 134.32 154.37 133.849 154.37 133.614C154.607 132.439 154.843 131.498 154.843 130.322C155.317 130.322 155.79 130.558 156.263 130.558Z" fill="#DFECFD"/>
<path d="M125.966 127.266C128.711 127.266 130.937 125.055 130.937 122.328C130.937 119.601 128.711 117.39 125.966 117.39C123.221 117.39 120.995 119.601 120.995 122.328C120.995 125.055 123.221 127.266 125.966 127.266Z" fill="white"/>
<path d="M125.966 124.444C127.143 124.444 128.096 123.497 128.096 122.328C128.096 121.159 127.143 120.212 125.966 120.212C124.789 120.212 123.836 121.159 123.836 122.328C123.836 123.497 124.789 124.444 125.966 124.444Z" fill="url(#paint6_linear)"/>
<g filter="url(#filter4_d)">
<path d="M221.133 215.02C220.541 217.568 219.751 219.92 218.765 222.272C218.568 222.86 218.37 223.252 217.975 223.84C214.621 230.308 209.294 235.601 202.782 238.737C201.993 239.129 201.204 239.521 200.612 239.717C194.298 242.265 187.194 243.245 180.091 241.677C161.346 237.757 149.31 219.528 153.257 200.907C157.203 182.287 175.553 170.33 194.298 174.25C201.006 175.622 206.926 178.955 211.859 183.659C219.949 191.891 223.5 203.652 221.133 215.02Z" fill="url(#paint7_linear)"/>
</g>
<path d="M218.737 222.252C218.54 222.84 218.342 223.232 217.948 223.82C214.593 230.289 209.266 235.581 202.755 238.717C201.965 239.109 201.176 239.501 200.584 239.697L176.314 215.588L182.234 215.784L188.548 215.98L193.086 212.844C193.086 212.844 196.638 206.768 196.441 206.376C196.243 205.984 192.297 199.908 192.297 199.908L196.638 200.692L218.737 222.252Z" fill="url(#paint8_linear)"/>
<path d="M201.571 218.92L196.441 213.824C200.387 207.944 198.808 200.104 192.889 196.184C186.969 192.264 179.077 193.832 175.131 199.712C171.184 205.592 172.763 213.432 178.682 217.352C183.023 220.096 188.548 220.096 192.692 217.352L197.822 222.448C198.808 223.428 200.387 223.428 201.373 222.448C202.557 221.468 202.557 219.9 201.571 218.92ZM180.261 212.256C177.301 209.316 177.301 204.416 180.261 201.476C183.22 198.536 188.153 198.536 191.113 201.476C194.073 204.416 194.073 209.316 191.113 212.256C188.153 215.196 183.22 215.196 180.261 212.256Z" fill="url(#paint9_linear)"/>
<circle cx="146" cy="146" r="136" stroke="#EAEEF9" stroke-width="20"/>
<circle cx="24.5" cy="121.5" r="7.5" fill="url(#paint10_linear)"/>
<ellipse cx="207.5" cy="42" rx="3.5" ry="4" fill="white"/>
<circle cx="116" cy="217" r="6" fill="url(#paint11_linear)"/>
<defs>
<filter id="filter0_d" x="16.7532" y="94.2462" width="113.857" height="125.342" filterUnits="userSpaceOnUse" color-interpolation-filters="sRGB">
<feFlood flood-opacity="0" result="BackgroundImageFix"/>
<feColorMatrix in="SourceAlpha" type="matrix" values="0 0 0 0 0 0 0 0 0 0 0 0 0 0 0 0 0 0 127 0"/>
<feOffset dy="11"/>
<feGaussianBlur stdDeviation="11"/>
<feColorMatrix type="matrix" values="0 0 0 0 0.397708 0 0 0 0 0.47749 0 0 0 0 0.575 0 0 0 0.18 0"/>
<feBlend mode="normal" in2="BackgroundImageFix" result="effect1_dropShadow"/>
<feBlend mode="normal" in="SourceGraphic" in2="effect1_dropShadow" result="shape"/>
</filter>
<filter id="filter1_d" x="161.286" y="94.2462" width="113.849" height="125.342" filterUnits="userSpaceOnUse" color-interpolation-filters="sRGB">
<feFlood flood-opacity="0" result="BackgroundImageFix"/>
<feColorMatrix in="SourceAlpha" type="matrix" values="0 0 0 0 0 0 0 0 0 0 0 0 0 0 0 0 0 0 127 0"/>
<feOffset dy="11"/>
<feGaussianBlur stdDeviation="11"/>
<feColorMatrix type="matrix" values="0 0 0 0 0.397708 0 0 0 0 0.47749 0 0 0 0 0.575 0 0 0 0.18 0"/>
<feBlend mode="normal" in2="BackgroundImageFix" result="effect1_dropShadow"/>
<feBlend mode="normal" in="SourceGraphic" in2="effect1_dropShadow" result="shape"/>
</filter>
<filter id="filter2_dd" x="73.8101" y="34.8477" width="142.657" height="80.457" filterUnits="userSpaceOnUse" color-interpolation-filters="sRGB">
<feFlood flood-opacity="0" result="BackgroundImageFix"/>
<feColorMatrix in="SourceAlpha" type="matrix" values="0 0 0 0 0 0 0 0 0 0 0 0 0 0 0 0 0 0 127 0"/>
<feOffset dy="11"/>
<feGaussianBlur stdDeviation="11"/>
<feColorMatrix type="matrix" values="0 0 0 0 0.397708 0 0 0 0 0.47749 0 0 0 0 0.575 0 0 0 0.18 0"/>
<feBlend mode="normal" in2="BackgroundImageFix" result="effect1_dropShadow"/>
<feColorMatrix in="SourceAlpha" type="matrix" values="0 0 0 0 0 0 0 0 0 0 0 0 0 0 0 0 0 0 127 0"/>
<feOffset dy="11"/>
<feGaussianBlur stdDeviation="11"/>
<feColorMatrix type="matrix" values="0 0 0 0 0.397708 0 0 0 0 0.47749 0 0 0 0 0.575 0 0 0 0.18 0"/>
<feBlend mode="normal" in2="effect1_dropShadow" result="effect2_dropShadow"/>
<feBlend mode="normal" in="SourceGraphic" in2="effect2_dropShadow" result="shape"/>
</filter>
<filter id="filter3_d" x="76.5085" y="81.4666" width="137.26" height="152.63" filterUnits="userSpaceOnUse" color-interpolation-filters="sRGB">
<feFlood flood-opacity="0" result="BackgroundImageFix"/>
<feColorMatrix in="SourceAlpha" type="matrix" values="0 0 0 0 0 0 0 0 0 0 0 0 0 0 0 0 0 0 127 0"/>
<feOffset dy="11"/>
<feGaussianBlur stdDeviation="11"/>
<feColorMatrix type="matrix" values="0 0 0 0 0.397708 0 0 0 0 0.47749 0 0 0 0 0.575 0 0 0 0.18 0"/>
<feBlend mode="normal" in2="BackgroundImageFix" result="effect1_dropShadow"/>
<feBlend mode="normal" in="SourceGraphic" in2="effect1_dropShadow" result="shape"/>
</filter>
<filter id="filter4_d" x="144.507" y="170.506" width="85.347" height="84.926" filterUnits="userSpaceOnUse" color-interpolation-filters="sRGB">
<feFlood flood-opacity="0" result="BackgroundImageFix"/>
<feColorMatrix in="SourceAlpha" type="matrix" values="0 0 0 0 0 0 0 0 0 0 0 0 0 0 0 0 0 0 127 0"/>
<feOffset dy="5"/>
<feGaussianBlur stdDeviation="4"/>
<feColorMatrix type="matrix" values="0 0 0 0 1 0 0 0 0 0.37875 0 0 0 0 0.1125 0 0 0 0.22 0"/>
<feBlend mode="normal" in2="BackgroundImageFix" result="effect1_dropShadow"/>
<feBlend mode="normal" in="SourceGraphic" in2="effect1_dropShadow" result="shape"/>
</filter>
<linearGradient id="paint0_linear" x1="46.7972" y1="201.725" x2="46.7972" y2="208.389" gradientUnits="userSpaceOnUse">
<stop stop-color="#575274"/>
<stop offset="1" stop-color="#312D46"/>
</linearGradient>
<linearGradient id="paint1_linear" x1="227.221" y1="60.744" x2="227.221" y2="67.0162" gradientUnits="userSpaceOnUse">
<stop stop-color="#FD6A4E"/>
<stop offset="1" stop-color="#F94530"/>
</linearGradient>
<linearGradient id="paint2_linear" x1="144.645" y1="40.5555" x2="144.645" y2="235.189" gradientUnits="userSpaceOnUse">
<stop stop-color="#575274"/>
<stop offset="1" stop-color="#312D46"/>
</linearGradient>
<linearGradient id="paint3_linear" x1="145.139" y1="45.8477" x2="145.139" y2="82.3047" gradientUnits="userSpaceOnUse">
<stop stop-color="#FD6A4E"/>
<stop offset="1" stop-color="#F94530"/>
</linearGradient>
<linearGradient id="paint4_linear" x1="145.014" y1="110.82" x2="145.014" y2="144.783" gradientUnits="userSpaceOnUse">
<stop stop-color="#FD6A4E"/>
<stop offset="1" stop-color="#F94530"/>
</linearGradient>
<linearGradient id="paint5_linear" x1="145.73" y1="111.189" x2="145.73" y2="136.673" gradientUnits="userSpaceOnUse">
<stop stop-color="#EF4F31"/>
<stop offset="1" stop-color="#F53B25"/>
</linearGradient>
<linearGradient id="paint6_linear" x1="125.966" y1="120.212" x2="125.966" y2="124.444" gradientUnits="userSpaceOnUse">
<stop stop-color="#FD6A4E"/>
<stop offset="1" stop-color="#F94530"/>
</linearGradient>
<linearGradient id="paint7_linear" x1="187.181" y1="173.506" x2="187.181" y2="242.432" gradientUnits="userSpaceOnUse">
<stop stop-color="#FD6A4E"/>
<stop offset="1" stop-color="#F94530"/>
</linearGradient>
<linearGradient id="paint8_linear" x1="192.361" y1="213.854" x2="204.359" y2="225.932" gradientUnits="userSpaceOnUse">
<stop stop-color="#EC3823"/>
<stop offset="1" stop-color="#FD6A4E" stop-opacity="0"/>
</linearGradient>
<linearGradient id="paint9_linear" x1="198.403" y1="219.487" x2="181.439" y2="202.409" gradientUnits="userSpaceOnUse">
<stop offset="0.0113208" stop-color="#FFD1C2"/>
<stop offset="1" stop-color="white"/>
</linearGradient>
<linearGradient id="paint10_linear" x1="24.5" y1="114" x2="24.5" y2="129" gradientUnits="userSpaceOnUse">
<stop stop-color="#FFD361"/>
<stop offset="1" stop-color="#F2BA29"/>
</linearGradient>
<linearGradient id="paint11_linear" x1="116" y1="211" x2="116" y2="223" gradientUnits="userSpaceOnUse">
<stop stop-color="#FD6A4E"/>
<stop offset="1" stop-color="#F94530"/>
</linearGradient>
</defs>
</svg>
