<svg width="74" height="7" viewBox="0 0 74 7" fill="none" xmlns="http://www.w3.org/2000/svg">
<path d="M1.136 1.80432L2.816 2.39632L2.96 2.34832V0.524316H4.464V2.34832L4.592 2.39632L6.288 1.80432L6.784 3.22832L5.072 3.83632L5.024 3.98032L6.176 5.54832L4.96 6.42832L3.776 4.82832H3.648L2.464 6.42832L1.248 5.54832L2.4 3.98032L2.352 3.83632L0.64 3.22832L1.136 1.80432ZM8.55788 1.80432L10.2379 2.39632L10.3819 2.34832V0.524316H11.8859V2.34832L12.0139 2.39632L13.7099 1.80432L14.2059 3.22832L12.4939 3.83632L12.4459 3.98032L13.5979 5.54832L12.3819 6.42832L11.1979 4.82832H11.0699L9.88588 6.42832L8.66988 5.54832L9.82188 3.98032L9.77387 3.83632L8.06188 3.22832L8.55788 1.80432ZM15.9798 1.80432L17.6598 2.39632L17.8038 2.34832V0.524316H19.3078V2.34832L19.4358 2.39632L21.1318 1.80432L21.6278 3.22832L19.9158 3.83632L19.8678 3.98032L21.0198 5.54832L19.8038 6.42832L18.6198 4.82832H18.4918L17.3078 6.42832L16.0918 5.54832L17.2438 3.98032L17.1957 3.83632L15.4838 3.22832L15.9798 1.80432ZM23.4016 1.80432L25.0816 2.39632L25.2256 2.34832V0.524316H26.7296V2.34832L26.8576 2.39632L28.5536 1.80432L29.0496 3.22832L27.3376 3.83632L27.2896 3.98032L28.4416 5.54832L27.2256 6.42832L26.0416 4.82832H25.9136L24.7296 6.42832L23.5136 5.54832L24.6656 3.98032L24.6176 3.83632L22.9056 3.22832L23.4016 1.80432ZM30.8235 1.80432L32.5035 2.39632L32.6475 2.34832V0.524316H34.1515V2.34832L34.2795 2.39632L35.9755 1.80432L36.4715 3.22832L34.7595 3.83632L34.7115 3.98032L35.8635 5.54832L34.6475 6.42832L33.4635 4.82832H33.3355L32.1515 6.42832L30.9355 5.54832L32.0875 3.98032L32.0395 3.83632L30.3275 3.22832L30.8235 1.80432ZM38.2454 1.80432L39.9254 2.39632L40.0694 2.34832V0.524316H41.5734V2.34832L41.7014 2.39632L43.3974 1.80432L43.8934 3.22832L42.1814 3.83632L42.1334 3.98032L43.2854 5.54832L42.0694 6.42832L40.8854 4.82832H40.7574L39.5734 6.42832L38.3574 5.54832L39.5094 3.98032L39.4614 3.83632L37.7494 3.22832L38.2454 1.80432ZM45.6673 1.80432L47.3473 2.39632L47.4913 2.34832V0.524316H48.9953V2.34832L49.1233 2.39632L50.8193 1.80432L51.3153 3.22832L49.6033 3.83632L49.5553 3.98032L50.7073 5.54832L49.4913 6.42832L48.3073 4.82832H48.1793L46.9953 6.42832L45.7793 5.54832L46.9313 3.98032L46.8832 3.83632L45.1713 3.22832L45.6673 1.80432ZM53.0891 1.80432L54.7691 2.39632L54.9131 2.34832V0.524316H56.4171V2.34832L56.5451 2.39632L58.2411 1.80432L58.7371 3.22832L57.0251 3.83632L56.9771 3.98032L58.1291 5.54832L56.9131 6.42832L55.7291 4.82832H55.6011L54.4171 6.42832L53.2011 5.54832L54.3531 3.98032L54.3051 3.83632L52.5931 3.22832L53.0891 1.80432ZM60.511 1.80432L62.191 2.39632L62.335 2.34832V0.524316H63.839V2.34832L63.967 2.39632L65.663 1.80432L66.159 3.22832L64.447 3.83632L64.399 3.98032L65.551 5.54832L64.335 6.42832L63.151 4.82832H63.023L61.839 6.42832L60.623 5.54832L61.775 3.98032L61.727 3.83632L60.015 3.22832L60.511 1.80432ZM67.9329 1.80432L69.6129 2.39632L69.7569 2.34832V0.524316H71.2609V2.34832L71.3889 2.39632L73.0849 1.80432L73.5809 3.22832L71.8689 3.83632L71.8209 3.98032L72.9729 5.54832L71.7569 6.42832L70.5729 4.82832H70.4449L69.2609 6.42832L68.0449 5.54832L69.1969 3.98032L69.1489 3.83632L67.4369 3.22832L67.9329 1.80432Z" fill="url(#paint0_linear)"/>
<defs>
<linearGradient id="paint0_linear" x1="37.5" y1="-3.01968" x2="37.5" y2="16.0973" gradientUnits="userSpaceOnUse">
<stop stop-color="#575274"/>
<stop offset="1" stop-color="#312D46"/>
</linearGradient>
</defs>
</svg>
